<?xml version="1.0" encoding="UTF-8"?><svg id="Calque_1" xmlns="http://www.w3.org/2000/svg" width="117.85mm" height="191.82mm" viewBox="0 0 334.06 543.74"><path d="M101.55,503.87c5.81-7.3,18.11-12.49,25.28-22.96,1.98-2.9,3.2-6.43,4.17-9.73,1.36-4.61,1.22-8.8-.31-13.26s-2.71-8.72-5.41-12.33c-2.59-3.47-5.24-6.51-8.67-9.15s-6.64-5.44-10.27-7.11c-5.52-2.54-10.1-5.55-14.82-9.13-7.37-5.59-14.48-10.96-21.41-17.34-11.35-10.44-16.73-21.69-20.58-36.5-.84-3.25-1.77-12.24-1.8-15.64-.06-6.21,2.75-18.43,4.74-24.47,3.32-10.07,8.22-19.35,13.45-28.52,2.79-4.9,5.34-9.54,7.41-14.79,3.91-9.91,4.39-15.03,3.69-25.79-.13-2.06-.93-4.47-1.59-6.47-2.32-7.05-6.59-13.28-12.99-17.11-10.81-6.46-19.78-5.01-24.34-9.31-1.08-1.02-2.97-2.28-3.52-3.64-1.06-2.62-1-6.44.7-8.72,8.33-11.12,20.49-14.23,27.8-29.82,2.32-4.96,2.57-10.78,2.33-16.16-.17-3.72-.92-7.01-3.17-10.09-5.12-6.98-1.16-9.15-9.92-19.13-2.26-2.57-4.31-4.99-6.81-7.29-5.05-4.65-9.88-9.19-15.25-13.54-10.93-8.87-12.26-9.94-21.07-21-3.08-3.87-5.59-8.12-6.9-12.8-2.58-9.25-3.04-18.16-1.02-27.51,2.45-11.37,8.72-25.13,17.4-33,7.95-7.2,16.88-12.45,27.01-16.24-.46.17,9.39-2.19,9.13-2.16l8.69-.97c8.49-.95,17.68.13,25.24,3.89l9.63,4.8c4.45,2.22,8.26,5.02,12.46,7.64l13.39,8.33,6.97,4.51,5.72,3.35c11.27,6.6,21.84,11.01,34.61,13.57l4.36.87c4.71.95,9.03.91,13.73.05,2.38-.43,4.9-.69,7.21-1.49l1.85-7.42c.31-1.23,1.66-2.93,2.74-3.16l4.65-1.01c12.69,2.5,14.77,6.95,27.15-1.06,20.47-13.26,22.05-29.3,47.09-34.61,9.3-1.97,19.12,3.22,24.44,10.95,1.72,2.5,3.4,5.29,1.91,8.58-.77,1.71-3.21,3.02-4.88,4.01-3,1.78-11.54,6.68-10.56,10.96,1.79,7.86,8.47,12.66,15.7,14.61,1.93.52,3.78,1.39,5.63,2.03,9.31,3.18,9.73,1.33,16.61,5.28,4.34,2.49,5.53,7.44,4.12,11.88-2.79,8.81-11.64,7.98-12.66,13.74-.64,3.64,5.54,6.38,8.34,7.72,3.57,1.71,5.45,4.49,5.09,8.67-.62,7.25-5.78,13.32-12.99,14.88-1.17.25-2.89,1.02-4,1.13-3.46.32-7.02.42-10.38-.01l-7.25-.94c-5.13-.67-10.68-.55-15.37,1.76-7.8,3.86-10.01,11.32-9.67,19.58.58,14.39,2.13,6.18,6.27,19.31l2.06,6.53c2.51,7.97,5.85,15.91,11.75,21.91l6.52,6.64c3.47,3.53,6.12,7.57,9.49,11.22l3.72,4.04c10.63,11.54,13.71,17.01,10.17,33.58-.64,3.02-1.55,6.6-3.51,8.9-1.67,1.95-3.31,3.82-5.27,5.45l-8.29,6.92c-.27.23-6.91,6.85-6.95,6.91-2.17,2.84-4.45,5.61-6.25,8.69-3.53,6.03-5.52,13.18-5.8,20.11l-.61,14.92c-.37,9.09,1.2,16.55,4.43,24.94l3.07,7.97c1.03,2.68,2.06,5.23,3.26,7.82,1.54,3.32,3.43,6.59,4.81,10l5.39,13.35c1.7,4.22,1.6,10.85,1.12,15.5-.22,2.11-1.16,4.67-1.97,6.56l-3.63,8.45c-2.42,5.63-5.46,10.73-9.51,15.33l-8.99,10.22c-7.5,8.53-22.14,17.18-32.49,22.24-2.3,1.12-4.31,2.93-6.6,3.8-5.53,2.11-9.72,6.04-14.78,8.8l-9.97,5.44c-6.79,3.7-16.67,12.79-21.61,19.71l-6.58,9.21-7.82,11.88c-7.28,11.06-23.75,24-36.6,29.02-8.61,3.36-17.88,4.09-26.67,1.84s-16.01-6.32-21-13.59c-.78-1.13-1.91-3.65-2.04-4.97-.46-4.51-.74-16.44,2.11-20.01Z"/></svg>