<?xml version="1.0" encoding="UTF-8"?><svg id="Calque_1" xmlns="http://www.w3.org/2000/svg" width="27.93mm" height="25.96mm" viewBox="0 0 79.18 73.58"><path d="M49.03,70.69c-3.21.91-1.74,2.27-4.87,2.38l-1.26.52-.49-1.34-1.57.17c-.25.03-1.09.07-1.21-.15l-.46-.88-.99.05c-.27.01-.65-.58-.67-.73l1.58-.66c-1.72-.76-3.81-.01-6.09-.3l-1.82-1.43-.27,1.04-.3-.74c.4.33-4.03,1.9-4.01,1.3l1.06-.78c-.25-.58-.87-1.81-1.28-2.37-.2-.27-.95.28-1.26.6-1.11-.85-1.01-1.9-3.14-2.34-2.6,1.39-2.15-1.01-5.4.12-.98.34-1.45-.35-2.01-.62-.62-.3-1.24-.55-1.78-.86-1.34-.78-2.84-2.29-4.41-2.93-.75-.31-2.23-.31-3.03-.26l-1.21.07c1.06-3.37-.37-1.93-.57-5.4l-1.52-2.14c-.21-.29-.36-1.06-.55-1.33-.64-.91-.27-1.81-.37-2.74-.23-2.11-.36-4.02-.1-6.22.17-1.42.78-3.23.23-4.58-.3-.72-.68-1.64-.67-2.36,0-.39-.51-1.4-.17-1.54.37-.16,1.11-.21,1.58-.25.42-.66-.1-1.66-.73-2.18-.11-.46-.23-1.2-.39-1.6l-.67-1.76c1.61-3.07-.29-1.74,1.72-4.7,1.26-1.85-1.43-2.39-1.9-8.33-.2-2.5-.01-5.03,1.22-7.24.86-1.54,1.83-3.07,3.17-4.2,1.04-.88,2.13-1.84,3.31-2.48,3.31-1.78,7.3-1.92,10.8-.68.73.26,1.47.85,2.14,1.22,3.83,2.13,4.22,4.89,6.08,3.25.15-.36-.04-1.48.38-1.62,1.35-.46,4.28,1.37,5.31,2.23,3.18.31,6.32.16,9.57.14l.13,2.34c1.54,1.31,1.05,3.33,2.77,3.07l2.74-.4c1.91-4.52,1.99-5.96,6.21-8.29,1.29-.71,2.59-1.11,3.98-1.48,5.76-1.52,11.35.68,14.59,5.63,1.09,1.67,2.14,3.28,2.31,5.35l.45,5.56c.14,1.79,1.69,3.3,2.44,4.89.33.71.48,1.49.73,2.25.69,2.07,1.05,4.31.56,6.47-.06.25-.28.61-.44.72-.2.14-.87.08-1.06-.07l-1.71-1.41c-.23.76-.82,5.66-.82,5.72-.05,1.66,0,2.87-.38,4.53l-1.1,4.67c-.26,1.08-.77,2.1-1.03,3.15l-.66,2.69-.28,1.5c-.75.3-1.05.72-1.33,1.39l-.79,1.88-.7,1.7c-.17.42-.65,1.14-.96,1.58l-1.16,1.65c-1.3.89-1.18.05-1.55,2.22-1.03-.26-1.79.43-2.01,1.47-.02.11-.12.55-.22.55l-.62.05-1.35,1.94c-1.18-.83-1.97-.22-2.87.25l-2.97,1.56c-2.68,1.41-1.29,1.97-3.12,2.63-1.12.4-.77-1.69-2.78-1.12Z"/></svg>