<?xml version="1.0" encoding="UTF-8"?><svg id="Calque_1" xmlns="http://www.w3.org/2000/svg" width="31.78mm" height="79.2mm" viewBox="0 0 90.08 224.5"><path d="M48.64,153.35l-1.99-6-.66-1.73-3.02-5.39c-1.33.09-1.41,1.29-1.9,2.08s-.5,1.45-.83,2.27l-1.78,4.41c-.22.55-.68,1.36-.78,1.83-.76,3.67-.82,2.2-1.66,4.87l-.84,2.66c-.43,1.37-.58,2.65-.58,4.09v9.53c0,2.01.6,6.01,1.09,7.92.62,2.4.32,4.8-.99,6.9-.62.99-.47,2.01-.18,3.07l.7,2.53c.75,2.71,1.79,5.13,2.88,7.66.73,1.69.65,3.75-.16,5.26-1.12,2.07-5.81,2.79-7.99,2.98-1.35.12-2.39,1.11-2.47,2.54-.07,1.24-.26,2.37-.52,3.65-.09.45-.58.84-.75,1.18-.28.53-.46,1.08-.85,1.53-1.56,1.78-2.51,2.56-4.49,3.92-.44.3-1.1.56-1.56.85-1.44.88-4.03,2.25-5.71,2.41-1.17.11-2.32.22-3.48.03-1.95-.32-3.93-.53-5.62-1.67-.82-.55-1.31-1.84-1.59-2.79-1.2-4.07-2.15-6.25-.5-10.6.67-1.77,1.93-3.02,3.22-4.33,1.82-1.84,2.99-3.21,4.38-5.37.57-.88,1.23-1.7,1.64-2.68,1.02-2.44,2.22-4.83,2.26-7.53l.11-7.4c.05-3.55.17-6.91-.39-10.42-.33-2.1-.28-3.49-.65-5.9l-.72-4.65-.51-.47c-.11-1.01-.17-1.98-.13-3.03.02-.59-.45-.92-.6-1.37l-1.01-2.89-1.09-3.2c-.34-.99-.73-1.91-1.1-2.91l-1.52-4.12-.6-1.92c-.63-2-1.55-3.84-2.02-5.88l-1.11-4.82c-.92-3.96-1.76-7.85-2.29-11.89s-.26-10.13.38-14.03l.7-4.31c.34-2.1.82-4.05,1.44-6.11l.84-2.8,2.35-6.81,2.14-5.09.73-1.97,2.74-5.89,3.22-6.45c.78-1.57,1.75-2.92,2.57-4.44l2.4-4.46c.88-1.63,1.58-3.23,2.26-4.95,1.26-3.2-.23-6.31-1.58-9.01-1.49-2.99-2.69-8.11-2.66-11.47.05-4.7.95-7.16,3.39-11.1,2.65-4.27,7.1-6.2,11.55-8.22,2.2-1.01,5.69-3.83,3.55-6.62-.58-.76-1.28-1.7-1.43-2.66s1.06-1.56,1.8-1.73c4.61-1.01,11.72-.03,16.36.95.74.16,1.68.09,2.47.21,2.19.32,4.28.68,6.39,1.14.65.14,1.4.93,1.15,1.55-1.21,2.92-2.61,2.73-2.18,4.92l.42,2.13c1.42,1.22,2.76,2.76,4.47,3.55,2.23,1.03,4.3,1.98,6.22,3.54s1.96,1.9,3.74,3.83c1.47,1.61,2.26,3.58,3.07,5.6,2.39,5.99.51,13.51-2.21,19.15l-1.69,3.51c-1.45,3.01-1.33,6.7-.06,9.66l.75,1.76c.36.85.87,1.74,1.17,2.58.43,1.2.82,2.25,1.33,3.4,2.9,6.54,3.23,8.88,5,15.53.6,2.27,1.07,4.39,1.39,6.77,1.07,7.94,2.34,22.25,1.14,29.92l-.54,3.47c-.21,1.31-.39,2.54-.73,3.83-.48,1.83-.72,3.62-1.1,5.45l-.64,3.09c-.39,1.87-.81,3.68-1.34,5.5-.27.94-.78,1.82-.97,2.8-.51,2.52-1.52,4.83-2.19,7.3l-.99,3.69-.96,3.83-1.08,4.86c-.23,1.02-.25,2.08-.59,3.01-.13.38-.25,1.2-.25,1.59v5.27c0,.41.44,1.14.52,1.55.65,3.22,2.52,4.55,2.33,6.87l-.2,2.37c-.1,1.14-.33,2.43-.11,3.57.45,2.38,1.08,4.63,1.91,6.88.32.86.85,1.7,1.28,2.5l1.7,3.21c.72,1.36,1.67,2.58,2.51,3.91l3.13,4.95c.57.9,1.04,1.81,1.37,2.81l.85,2.56c.7,2.12.83,4.11.13,6.26-.44,1.35-1.33,2.34-2.85,2.57l-3.42.51c-.69.1-1.77.06-2.43-.09l-2.5-.6c-.54-.13-1.44-.32-1.9-.53l-3.16-1.38c-1.77-.77-3.46-1.64-5.13-2.56-2.7-1.5-5.94-4.51-6.89-7.48l-.64-1.99c-.42-1.33-.48-2.88-.61-4.24s-.67-1.91-1.99-2.35c-.86-.29-1.78-1.07-2.68-1.56-1.19-.66-2.26-1.98-2.19-3.45.06-1.25.58-2.72.9-3.86.24-.88-2.23-1.69-2.35-4.84-.08-1.96.15-3.92.48-5.87.27-1.58.05-3-.08-4.56-.12-1.46-.18-2.94-.22-4.44l-.14-5.28c-.03-1.24-.08-2.48-.35-3.71s-.39-2.45-.6-3.75c-.13-.79-1.15-4.68-1.45-5.5-.9-2.46.07-.32-.78-2.9ZM26.21,41.26c.78-.37,1.51-1.01,1.93-1.74,2.07-3.52,4.18-6.84,6.45-10.22,1.3-1.94,2.77-5.82,3.45-8.14.38-1.3,1.03-2.78.42-4.11-.82-1.8-2.89-2.01-4.57-1.47-2.92.94-5.67,2.22-7.66,4.59-.48.58-1.07,1.14-1.48,1.77-.5.77-1.06,1.72-1.34,2.6-1.83,5.7-2.14,7.91-.32,14,.22.74.85,1.5,1.23,2.15.36.6,1.14.92,1.88.56ZM74.1,43.35c1.3-3.71,2.03-8.67,1.17-12.4-.33-1.42-.88-2.92-1.69-4.11l-1.51-2.25c-.89-1.32-1.83-2.56-2.87-3.77-.91-1.06-2.33-1.58-3.53-2.24-1.39-.76-2.73-1.43-4.28-1.81-.64-.16-1.39.05-1.95.3-1.84.8-2.81,2.65-2.18,4.61.04,5.81,2.78,8.93,5.66,13.37,1.09,1.68,2.09,3.3,3.04,5.05.55,1.02,1.12,1.91,1.8,2.85,1.03,1.42.93,1.87,2.92,2.49,1.38.42,2.93-.69,3.41-2.07Z"/></svg>