<?xml version="1.0" encoding="UTF-8"?><svg id="Calque_1" xmlns="http://www.w3.org/2000/svg" width="105.38mm" height="201.4mm" viewBox="0 0 298.73 570.89"><path d="M23.84,544.72c-8.65-6.24-16.79-15.05-11.83-26.44,4.92-11.28,13.86-19.63,25.24-24.13,4-1.58,7.68-3.17,11.55-5.16,1.48-4.94,1.55-9.44,1.62-14.39.18-11.5.25-24.27-3.89-35-13.49-4.04-30.93-9.14-40.86-19.17-4.35-4.39-6.89-10.74-5.1-16.79,3.25-10.97,18.17-15.89,27.88-20,3.14-6.72,8.14-11.88,14.34-15.81,4.33-2.74,8.38-5.11,13.05-7.31,12.96-6.11,26.36-10.4,40.33-13.63,4.42-1.02,8.39-1.93,12.87-2.5,1.5-.19,2.88-.89,3.65-2.23,3.31-5.74,5.48-11.74,6.51-18.43,1.95-12.62,2.16-25.09,1.68-37.89-.21-5.71.02-11.08-.53-16.68-1.06-10.81-2.19-21.3-3.89-32.02-.66-4.19-1.74-8.07-2.69-12.19-4.28-18.46-9-32.03-17.9-48.77-3.07-5.77-7.09-10.49-11.44-15.3-8.18-9.04-16.73-14.68-27.68-20.12l-7.12,3.05c-3.07,1.32-7.45,0-9.88-2.05-3.72-3.16-3.98-7.85-5.02-12.21-.72-3.03-2.07-5.76-1.26-9.18,2.32-9.75,7.96-17.21,15.56-23.57,1.94-1.62,3.92-1.04,5.76.12l6.51,4.09c9.74-.83,13.05,7.01,19.62,11.51l11.66,7.98,12.8,10.22c1.38,1.1,2.68,2,4.09,3.16s2.59,2.96,3.91,4.18c3.68,3.38,7.48,6.38,11.42,9.59,3.52-4.77,6.87-8.8,11.3-12.18,1.46-1.11,3.6-1.61,5.26-2.53,5.57-3.1,3.1-15.89,1.65-21.11-2.69-9.7-6.51-18.65-10.3-27.95-2.03-4.99-3.75-9.97-4.35-15.28-2.1-18.49,8.45-34.75,21.63-46.37,5.36-4.73,11.27-8.16,17.75-11.2,6.88-3.23,16.35-7.36,23.8-8.8,9.79-1.89,19.5-3.14,29.44-1.3,2.59.48,11.53,3.92,13.7,5.31,4.78,3.06,9.43,7.04,13.38,11.1,6.56,6.74,10.43,20.43,9.94,29.83-.2,3.87.12,7.85-.54,11.55l-2.95,16.69-2.54,14.29-6.52,37.41-4.12,24.86c-1.97,11.93-3.83,23.43-4.69,35.54l-1.5,21.05-2.39,36.03-.98,34.08c-.31,10.82-.59,21.23.8,31.92l2.48,19.12c1.01,7.76,1.89,15.22,3.76,22.9.74,3.02,3.99,7.06,6.28,9.04,5.63,4.88,17.8,6.99,25.2,22.31,10.11,4.57,20.2,7.61,26.37,16.86,3.59,5.39,1.96,11.22-1.16,16.23-.87,1.4-1.94,2.98-3.31,3.99-12.35,9.07-24.86,14.09-39.71,18.45-3.91,10.61-4.59,25.88-4.25,37.29.11,3.54.87,6.8,1.66,10.25,1.49.76,3.15,1.57,4.68,2.04,7.98,2.48,14.93,6.39,22.05,10.56,5.2,3.04,9.11,6.85,11.65,12.52,4.28,9.58-.3,19.15-7.23,26.28-1.81,1.86-3.44,4-5.54,5.5-3.66,2.61-7.2,4.91-11.24,6.93-12.64,6.31-25.89,10.28-39.89,12.94-30.54,5.8-62.58,8.04-93.69,6.76l-20.64-.85c-3.12-.13-6.05-.27-9.14-.7l-19.81-2.76c-4.72-.66-8.95-1.36-13.48-2.86l-18.74-6.19c-2.37-.78-5.04-1.21-7.23-2.33l-13.44-6.92c-1.43-.74-2.96-2.2-4.35-3.2ZM173.43,294.24l1.52,18.84c.49,6.05,3.13,24.63,8.85,27.89,9.25-6.45,10.51-44.5,11.45-55.41l2.34-27.28c1.15-13.45.86-26.59,1.88-40.08l1.27-16.8,2.75-28.77c1.47-15.37,3.93-30.04,6.64-45.24l12.28-68.8c1.23-6.9,1.9-13.36,1.74-20.29-.13-5.46-2.78-10.86-7.78-13.33-5.49-.97-17.24,3.19-22.93,5.07-10.17,3.37-18.67,9.23-24.81,17.95-6.91,9.82-8.73,22.12-3.37,33.06l6.6,13.46c5.41,11.04,13.31,34.61,15.6,46.57,1.02,5.33,2.27,9.92,4.57,14.82,2.56,5.46,4.07,11.57,3.22,17.61l-1.11,7.87c-.63,4.45-1.54,8.8-4.64,12.18-2.18,2.38-5.43,2.54-8.28,3.78-7.48,3.26-6.8,15.1-7.31,22.27l-1.28,18.25c-.55,7.87-.23,15.52-.03,23.4l.83,32.96Z"/></svg>