<?xml version="1.0" encoding="UTF-8"?><svg id="Calque_1" xmlns="http://www.w3.org/2000/svg" width="543.16mm" height="1087.61mm" viewBox="0 0 1539.67 3082.98"><path d="M996.87,2899.42c5.68,13.74,8.91,38.54,16.42,50.56l-.2,34.5c-.05,8.02-.61,15.9-.89,24.03l-.59,17.57-.64,22.74c-.14,5.11-1.91,12.84-2.8,18.25-26.01,18.04-32.71,7.93-52.18,15.9l-38.38-15.78c-49.35,2.72-97.55,4.45-146.97,1.74-23.26-1.28-83.31-8.91-104.56-15.19-14.82-4.37-28.99-8.78-43.41-13.88-26.55-9.38-52.99-15.19-79.74-24.37l-36.72-12.61c-32.88-11.29-34.72-8.61-58.62-2.87l-19.41,4.66c-16.87,4.05-34.39,13.25-51.54,4.72l-42.63-21.21c-5.4-2.69-8.7-17.76-5.32-22.63,9.84-14.22,22.81-26.27,33-39.23,8.92-11.34-2.3-21.63-6.84-31.17-10.56-22.16-14.99-48.86-12.19-73.12,1.55-13.38,2.75-24.48.92-37.97-5-36.95-14.43-70.91-24.47-106.8l-53.5-191.24c-6.45-23.07-12.71-43.99-19.92-66.63l-21.85-68.66-16.71-54.52c-8.92-29.09-16.39-57.64-24.3-86.98l-6.94-25.75-32.58-128.54-9.62-38.47c-14.26-57-24.56-113.02-34.27-171.2l-26.75-160.29c-1.97-11.77-5.19-74.43,1.89-84.42l11.83-16.7-24.09-20.1c-13.02-10.86-23.24-23.81-33.4-37.51-8.42-11.34-17.33-22.52-20.78-36.64-7.04-28.84-13.67-72.73-.79-100.21l14.52-30.99c7.73-16.49,13.04-32.58,23.4-47.95,4.44-6.58,7.25-14.21,9.36-21.64l4.44-15.64c-11.82-5.24-14.26-19.93-7.66-30.19-.01-3.37-.73-10.09-.28-13.18l4.98-33.79c1.86-12.61,14.58-21.59,26.55-16.3,16.33,7.21,25.74,22.94,27.91,40.52.61,4.96,2.65,10.57,4.56,13.83l19.35-11.4c12.4-7.31,21.33-17.78,28.15-31.56l-27.41-1.3c-4.13-.2-7.8-5.04-7.3-9.83l8.73-83.41,6-70.05,5.13-69.32c1.78-24.05,1.88-48.76-3.27-72.04-1.15-5.2-10-12.49-14.65-13.14-7.26-1.01-35.38,32.35-41.75,39.88-1.8,2.13-8.61,4.45-10.19,1.78-8.81-14.94,11.48-30.9,7.66-80.29-1.65-21.35-10.02-38.16-25-52.46-24.85-23.73-35.16-14.82-47.31-29-.76-.88-.95-5.51.1-5.99s3.98-1.47,5.22-1.46l34.36.14c24.27.1,45.1-8.73,62.81-24.21,31.78-27.78,61.32-39.33,98.95-13.29l18.2,12.59c31.82,3.79,58.07,40.85,64.9,67.25,10.87,42.02,8.93,68.26,18.55,108.95l17.54-28.85c2.62-4.32,28.44-11.63,40.27.06,5.33,5.27,7.07,12.86,7.62,21.04l2.1,30.72c.54,7.91.73,14.72.47,24.44,11.54-7.56,11.99-19.15,14.92-31.9l4.44-19.32c1.31-5.7,1.37-10.8,4.08-15.18,6.85-11.07,12.36-22.22,26.48-24.42,6.54-34.66,20.96-27.88,34.77-48.03-2.92-13.14-3.4-24.03-3.8-37.1-.27-8.88,1.26-15.75,7.36-21.9,6.26-6.32,12.51-11.83,20.83-11.3,14.43.93,32.3,16.63,28.87,29.51l-7.57,28.41c-1.74,6.54-2.23,23.19,7.61,23.5.84.03,2.16-2.67,2.16-3.87.21-30.08,7.68-61.54,17.45-90.78,17.91-53.59,26.88-107.64,32.64-163.43l5.4-52.33,7.76-64.1c5.71-47.22,16.83-75.23,24.19-119.53,2.57-15.48,1.47-30.87,8.79-45.93l24.5-50.37c7.85-16.13,19.39-83.65,28.72-111.67,10.53-31.6,27.52-62.64,52.01-85.76,16.68-15.74,41.43-20.55,63.13-24.78,34.95-6.8,69.75-1.95,102.9,10.34,5.36,1.99,10.07,10.55,14.5,13.81,32.52,23.93,48.87,49.76,47.03,91.65,4.88,6.51,12.77,14.6,14.77,22.82,2.79,11.49-5.2,19.96-8.51,29.94s2.12,21.78,4.43,31.95c6.67,29.48-2.23,114.48-26.64,135.58l15.98,82.25,10.91,47.33c4.44,19.27,53.6,84.84,8.32,120.38l-.6,37.92c-.22,13.98-3.58,26.57-2.82,40.66.7,13.12-1.76,27.14.13,39.9l5.95,40.21c.93,6.29,1.11,12.76.4,19.15-1.44,12.99,3.46,25.3,4.47,38.08l3.85,48.61c.83,10.54-3.47,21.39,3.18,31.44,1.21-17.68,8.38-35.59,24.16-44.12,3.06-.48,9.74-1.91,12.69-2.59,39.34-89.99,51.36-51.2,74.77-69.06,22.47-17.15,45.72-27.99,74.81-16.94,7.27,2.76,11.15,12.72,17.18,17.08,3.33,2.41,10.86,4.16,13.66,7.09,14.13,14.74,18.53,33.42,19.71,52.98l15.64,6.59c3.37,1.42,7.63,7.69,7.82,11.11.88,15.39-16.04,8.89-27.45,54.97-5.34,21.57-10.87,46.46-19.06,66.3-15.33-4.55-11.44,77.57-7.14,73.34.48-.47,2.54-2.17,3.26-4.55,18.57-61.27,43.26-149.36,75.25-208.21,8.57-15.77,20.73-30.12,33.12-43.03,11.86-12.37,28.38-16.23,43.64-22.23,13.34-5.25,25.06-13.95,39.56-17.59,20.23-5.08,44.5-4.71,62.69,6.46,23.97,14.72,29.48,45.79,58.37,56.76l25.41,9.64c4.47,1.7,5.67,14.93,2.1,18.26-9.27,4.66-21.11,7.93-30,14.17-9.97,7-19.55,17.91-24.26,29.13-5.61,13.35-11.94,26.92-14.21,40.91l-6.77,41.74c-1.08,6.65-10.61,12.83-16.3,9.88-4.76-14.21-16.68-43.37-27.92-52.68-13.79,10-14.03,25.33-20.15,38.46-5.28,11.33-10.9,21.62-13.46,34.35l-9.27,46.15-17.27,88.36c-3.39,17.35-6.53,34.68-8.34,52.17-1.35,13.07,7.18,26.76.24,40.45,29.19-4.47,25.84,7.37,34.16,5.64,5.68-1.18,9.76-18.38,21.15-23.54,13.49-6.12,29.7-3.06,40.55,7.57,4.56,4.47,4.11,15.76,5.6,22.48l15.74,9.16c9.41,24.11,1.37,22.91,6.54,45.39,1.92,8.34-5.3,10.44-7.44,15.71l-9.03,22.29c-11.27,27.8-5.64,9.41-17.44,20.14-6.41,5.83,13.84,41.47,16.97,68.53,2.57,22.16,5.2,44.08,1.76,65.51-4.9,30.47-18.66,56.12-40.78,76.56-18.61,17.2-2.65,34.81-13.51,44.69-4.43,4.03-16.72-.04-22.47-.39-1.89-.11-5.4,5.08-4.51,6.7l4.57,8.3,3.2,19.85c28.21,31.81,33.25,30.13,24.78,68.89l-4.15,18.99-29.7,94.46-5.48,16.02-7.7,23.16-28.12,80.45-12.7,35.38-13.1,34.78-35.79,89.4-40.86,96.49-13.12,31.4c-6.5,15.56-11.7,30.62-17.3,46.45l-27.17,76.88-20.06,52.31c-13.77,35.89-30.59,71.81-42.4,109.15l-20.25,64.08-21.22,54.97c-3.59,9.31-6.6,19.33-11.23,27.83-9.43,17.31-7.88,16.43-11.15,35.42-4.49,26.07-13.91,37.4-18.53,53.37l-7.01,24.27c-12.73,44.09-31.06,59.52-35.03,84.01-5.46,33.71,6.5,39.51,9.26,46.19ZM271.07,1344.77l.43-26.68c.08-4.73,1.49-14.32,3.26-18.41l6.28-14.56c5.21-3.09,14.23-6.15,17.72-10.29l9.53-11.28c-22.71-7.22-43.69,8.49-59.44,26.36l2.63,47.3.09,29.01c.05,15.66,1.46,30.23-.26,46-.49,4.49.79,9.72,3.84,14.19l6.15-38.77c2.56-16.15,9.51-26.83,9.77-42.86ZM1215.55,1384.94c2.84,5.52,4.58,9.71,7.39,13.7,5.86-13.02,4.56-24.01,3.56-36.63-1.62-20.43-6.64-39.19-15.64-57.67-1.58-3.25-3.31-8.54-5.95-9.21-2.27-.58-7.69.54-10.49.77l-27.6,2.24c-.73,3.67,2.98,6.97,5.59,10.05,13.56,15.95,21.66,35,31.12,53.37l12.02,23.37Z"/></svg>