<?xml version="1.0" encoding="UTF-8"?><svg id="Calque_1" xmlns="http://www.w3.org/2000/svg" width="160.6mm" height="272.13mm" viewBox="0 0 455.24 771.4"><path d="M186.61,761.54c-1.82-.13-4.39-1.99-5.54-3.04-6.74-6.1-5.41-1.07-12.11-7.97-2.1-2.17-3.45-.38-5.47-.52-2.65-.19-6.01-1.85-8.44.84-1.66-1.11-3.42-1.75-5.34-1.91l-8.9-.75-3.98-3.18c-1.64-1.31-3.06-2.37-4.79-3.41l-3.61-2.18-4.63-3.19c-5.53-.62-2.23-3.79-11.54-7.48-2.79-6.04-7.92-7.32-14.26-7.83-1.81-1.55-3.66-3-5.91-4.14l-5.31-2.71c-1.17-1.9-2.26-3.69-4.15-5.09l-4.72-3.46-8.2-4.37c-2.63-1.4-8.55-10.48-10.87-11.33-1.99-.73-2.32-1.53-3.04-3.53-.64-1.76-2.61-3.6-3.86-5.07l-5.47-6.39-3.55-8.99c-1.26-3.19-5.95-6.52-9.29-7.06-1.29-3.99-5.43-7.74-9.07-9.17l-6.53-9.21c-1.01-1.42-1.84-2.49-3.12-3.86-.89-.95-1.3-3.34-2.13-4.47-2.29-3.11-2.78-6.46-4.07-9.93-.78-2.1-2.14-3.59-1.95-6.2.18-2.35-.11-11.18-.93-12.4-3.06-4.54,1.82-2.63-.58-10.92-2.38-8.22-.62-8.1-1.47-14.49l-2.02-15.13c-.29-2.17-.77-4.04-1.49-6.19l1.19-5.6c.56-2.63.12-13.35-1.44-16.83,2.04-3.26,2.47-6.74,3.13-10.49l1.62-9.13c.39-2.21.45-2.41,2.33-3.78,1.28-.93,2.3-3.69,3.33-5.12,3.14-4.31,3.89-6.51,5.63-11.31,2.79-7.72-.11-5.64,4.7-9.59,2.89-2.38,5.47-5.12,7.44-8.31.35-.57.61-2.3,1.32-2.49,5.8-1.49,7.53-8.25,11.22-11.77,8.1-5.75,4.53-10.48,9.57-12.58,1.45-.61,2.42-1.71,3.5-2.74,2.48-2.36,3.71-5.01,4.78-8.4,1.63-1.07,4.15-2.29,5.39-3.94,4.94-6.59,6.49-4.83,10.91-11.57,3.19-.88,5.77-2.19,7.29-5.44.73-1.55,2.3-2.39,3.63-3.59l4.87-4.41c2.89-.95,4.51-2.41,5.3-5.55l1.3-5.15c.86-3.41.56-6.99.92-10.46s-.02-7.02.02-10.6c.07-5.98,2.47-11.75,3-17.73.19-2.18,1.19-3.65,2.64-5.21,6.05-6.53,2.78-4.35,7.45-11.15,1.79-2.6,3.77-4.75,5.92-7.09s3.79-5.26,6.38-7.01c4.07-2.74,4.55-7.67,4.32-12.15,1.49-2.1,2.42-4.04,2.87-6.78.5-3.02,2.14-6.49,2.11-9.45s.87-2.94,2.48-4.55c2.5-2.51,4.96-5.2,7.73-7.51l5.07-4.22c1.38-1.14,1.92-4.06,3.37-4.99,1.99-1.27,3.93-2.22,5.26-3.93,2.2-2.81,5.15-3.7,8.64-3.92,3.06-2.59,9.76-6.54,13.27-7.65s7.84.13,11.13-2.53c5.47-4.43,4.73.05,7.53-9.22,4.76-15.75,3.63-22.19,2.49-38.58-.26-3.7-.17-7.56-1.59-11.05-1.05-2.58-4.07-4.14-5.98-5.82-1.17-1.03-1.89-1.63-3.39-.88-3.2,1.6-6.36,3.56-9.86,4.38l-8.75,2.05c-.9,3.45-1.71,8.84-5.4,9.17-1.48.13-2.83-.67-3.74-1.87l-3.54-4.64c-4.14-5.43-9.73,2.59-15.07-4.68l-3.26-4.44c-.34-.47-.87-1.51-1.03-2.01s1.1-1.3,1.36-1.82l5.08-9.75c.14-.26.2-.92.16-1.16s-.8-.24-1.12-.14c-3.42,1.14-7.23,2.22-10.97,2.79-1.5.23-2.66,1.17-4.04,1.66-14.09,5.02-25.65,1.95-38.28-5.05l-8.86-4.91c-2.9-1.61-2.84-5.33-1.58-7.98,2.85-6.02,5.46-5.58,12-11.02,3.47-2.88,4.02-8.21,3.73-8.75-1.69-3.18-9.39-4.6-14.27-16.36-3.86-9.31-6.29-19.57-4.79-29.9.42-2.93,6.52-3.98,8.04-1.85,2.16,3.01,3.94,6.02,8.13,6.24l6.51-3.04c-.74-5.96-2.22-11.74-.56-17.35l3.25-11.02c1.76-5.97-3.04-13.38,2.18-24.69,3.51-7.62,8.77-8.89,17.24-7.28l8.62,1.63c1.77.33,3.62,2.08,5.43,2.59,1.91.54,3.65-2.37,3.9-4.01,1.31-8.56,4.76-8.85,9.09-15.51,8.17-6.1,16.28-5.47,25.6-2.42l7.31-3.37,7.09-1.68c3.49-.83,5.28-8.02,13.75-3.66,2.44,1.26,1.61-5.62,1.95-8.97.39-3.93,4.05-7.24,7.96-7.72,1.34-.16,2.99,1.11,4.22,1.57,15.66,5.83,20.03,8.44,29.42,21.85,2.42,3.45,6.28-6.16,17.78.16,7.09-6.71,2.94-4.35,11.68-8.1,4.07-1.74,5.8,5.45,6.35,7.3l2.01,6.72c1.04,3.49,3.33,6.74,3.64,10.46l.39,4.64c.24,2.88.45,5.65.23,8.53-.05.69-.23,1.55.06,1.9s1.46-.16,1.9-.44c5.45-3.41,10.62-6.69,15.52-10.83,2.53-2.13,8.13-5.72,10.78-3.1.95.94,1.1,2.41,1.24,3.93,1.05,11.42-.75,20.48-5.34,30.71-1.88,4.19-3.66,8.06-6.64,11.71l-6.1,7.49c-.27.33.04,1.47.38,1.56,2.88.75,12.85-1.64,16.82-3.17,3.19-1.23,8.58.14,9.19,4,.71,4.47-1.47,9.15-3.79,12.91-2.01,3.26-5.35,5.46-8.11,8.1l-11.75,11.23c-2.47,2.36-4.18,3.82-7.26,5.33l-22.21,10.89c-1.32.65-1.28,2.07-.97,3.34.7,2.79,1.05,5.76,2.32,8.25,2.39,4.69,4.66,12.81,4.53,18.16s-.36,10.59-3.03,15.47c-.95,1.73-4.1,3.61-6.1,3.67-4.05.13-7.22-2.1-10.32-4.02l-3.88-2.41c-1.01-.63-2.54-.96-3.63-.2.15,9.29-.39,18.49.27,27.68.59,8.2.74,15.88.8,24.12.02,3.19,1.15,13.69,4.25,15.67.58.37,2.7-.03,3.08.53,1.74,2.54,1.34,5.56,9.79,6.54l5.31,4.57c3.79,3.26,6.72,3.6,11.11,3.99,1.79,1.15,3.39,1.91,5.62,2.6,2.05.64,4.4,1.96,6.5,2.92,3.86,1.77,7.21,4.02,10.79,6.5,2.32,1.61,3.95,4.35,5.85,6.55,9.28,10.72,6.08,10.63,8.71,19,.9,2.86,1.09,6.33,2.91,8.76.67.89,1.62,1.68,2.01,2.67l5.8,14.88c.44,1.14.63,3.42.84,4.71l1.74,10.45c.78,4.68,5.46,11.58,8.8,14.56.5,2.12,1.01,4.24,2,6.22.84,1.69,1.52,3.67,2.26,5.35l2.91,6.61c.89,2.03.97,4.77,1.12,7.15l.44,7.26c.04.64,1.28,1.63,1.19,2.14-.1.6-.6,1.74-.93,2.31-1.36,2.35,1.15,3.88,1.5,5.78.66,3.66,1.26,7.6,5.01,9.67.1,3.68,2.44,5.76,5.55,7.36,1.13.58,2.84,2.35,4.05,2.12,2.02-.38,2.91-.25,4.25,1.01,2.58,2.43,6.22,3.75,9.2,5.64,1.45.92,2.62,2.01,4.52,1.7,2-.33,2.83,1.02,4.1,2.11l5.93,5.09c1.54,1.32,3.21,2.19,5.08,2.78.95.85,2.91,2.6,3.69,3.74,2.33,3.37,5.02,5.76,7.99,8.56,1.7,1.6,3.51,3.99,5.04,5.76,1.18,1.36,2.17,2.15,3.43,3.42l5.94,6c.96.96,2,2.15,2.91,3.28l4.47,5.49,1.61,8.96c.28,1.56.17,3.36,1.66,4.12,2.05,1.04,2.02,2.39,2.59,4.51.52,1.94,2.44,3.89,3.36,5.87,1.22,2.62,3.06,5.11,4.63,7.39l2.67,17.17c.79,5.06,1.83,9.52,1.28,14.66-.25,2.32-.25,4.67-.99,6.9-1.05,3.19-1.77,6.22-2.59,9.47-2.49,9.85,2.03,15.1,2.13,17.36l.67,14.94c.14,3.12-1.09,3.6-1.63,5.55-2.33,8.45-4.93,16.19-10.86,23.01-1.69,1.95-1.68,5.64-1.89,8.07l-.5,5.71c-.71,8.06-2.56,5.8-4.15,12.61-3.05,2.6-5.78,5.37-8.27,8.54-4.46,5.69-7.55,5.59-9.35,9.31l-6.59,13.61-2.36,5.41c-1.24,2.84-4.87,4.25-6.5,6.79l-1.25,1.95c-.28.43-5.45-1.05-9.18,5.46l-3.4.54c-1.05.17-2.56,1.3-2.67,2.35-.28,2.46-2.1,2.95-3.29,4.55-5.93,7.98-4.11,10.8-9.26,11.25-1.4.12-1.95,3.32-2.93,4.39-1.81,1.99-4.92,3.69-7.58,4.16-3.77.66-7.06,1.6-10.71,2.88-5.75,2.03-1.62,3.01-5.2,4.45-1.39.56-2.37,1.4-3.61,2.2l-7.57,4.89c-1.82,1.17-2.93,2.65-4.07,4.59l-6.49,2.56c-1.74.68-2.98,1.4-4.86,1.51l-4.43.25c-3.15.18-5.77,3.4-7.67,5.97-3.83-.01-7.09,2.13-9.69,5.02-9.39-.91-7.47,2.42-8.57,2.33-1.32-.11-6.68-1.88-9.4-.35-5.38,3.02.69-2.69-14.19.81-2.54.6-2.42,3.49-4.54,3.05-7.62-1.58-6.58-8.04-11.84-5.06-4.29,2.43-7.89,5.33-11.15,9.05-1.2,1.37-3.14,2.54-4.71,1.11l-4.79-4.33c-2.34-2.12-6.95-7.05-10.12-5.96-18.56,6.33-19.75,1.98-24.45,1.64l-7.97-.56Z"/></svg>