<?xml version="1.0" encoding="UTF-8"?><svg id="Calque_1" xmlns="http://www.w3.org/2000/svg" width="689.04mm" height="890.47mm" viewBox="0 0 1953.18 2524.17"><path d="M1921.07,1625.38l1.41,46.95c.47,15.53,4.39,30.24,2.86,45.77-.91,9.32-.55,19.61,1.03,28.59,4.07,23.12,2.14,45.89,3.32,69.58l2.87,57.51,2.11,61.71,3.36,63.33c.41,7.67,2.73,16.53,3.69,24.46,1.23,10.24.8,19.7.72,29.74-.11,13.53.37,27.58,1.22,41.54l1.87,30.82,1.61,113.16,2.92,80.97c.53,14.62.44,28.05-2.36,42.48-5.83,30.07-9.74,14.41-12.29,43-.85,9.5-9.34,17.07-13.11,25.47-8.91,19.87-26.47,58.94-41.38,72.55-3.72,3.4-7.38,14.15-12.25,15.72-25.61,8.23-60.21,1.72-81.08,2.48l-64.63,2.36c-14.83.54-29.46,1.13-44.26-.23-5.21-.48-9.22-.14-14.44.05-21.87.8-43.35-1.37-65.39-2.01l-102.27-2.97-72.04-1.05-88.17,3.08-53.8-.73-21.19-.46c-34.23-.74-67.04-.87-100.63-2.57-13.64-.69-27.55.22-41.4.07l-51.86-.56-65.2-.33-56.26-.5-135.47-.78-41.57.95c-23.46.54-45.96-.22-69.39.19l-94.75,1.64-52.79-3.43-139.18,3.47c-27.2.68-52.18-1.05-78.72-.97l-40.28.12c-10.54.03-20.27-.06-30.73-.24l-65.31-1.11-74.89-2.09c-27.21-.76-53.31-.11-78.89-10.3-6.14-2.45-11.23-11.12-16.07-15.09-4.49-3.69-8.03-7-6.91-12.65l4.99-25.2c.44-2.2,2.29-7.1,2.5-9.46l2.35-27.07c3.16-36.36-8.47-81.12-6.95-111.15.95-18.77,5.47-37.02,4.31-55.78-.37-6.07-.91-11.8-.41-17.68l2.12-24.65c1.36-15.87.94-30.87,4.16-46.31,4.59-22.04,4.35-43.25,3.98-65.23-.22-13.57,2.66-26.76,3.05-39.87l1.78-59.29c.47-15.81-.06-31.8-4.2-46.85-1.06-3.86-1.29-6.95-1.17-11.74l-4.85-13.67c4.54-5.79,2.7-10.3,2.44-16.82-.29-7.35,6.02-16.88,6.77-24.51.83-8.44-.25-17.8,1.77-25.2,11.45-41.99,8.09-45.7,15.66-83.88,11.72-59.12,2.09-59.68,5.45-88.45.5-4.24,1.35-8.85.15-12.09l-6.17-16.65c-2.75-7.42-4.15-20.35-3.38-28.3,2.1-21.81-1.03-18.28,3.55-37.77,9.7-18.02,10.57-34.93,10.37-54.19-.1-10.11,3.08-19.06.08-30.14-6.32-23.38,17.27-41.74,13.68-80.3-1.46-15.73,1.19-32.19-1.6-47.6-1.43-7.87-2.54-14.7-2.4-22.65l.64-37.19c.15-8.69.58-16.28,1.62-24.65l5.76-46.66c.29-2.34-.37-7.95.37-10.28,4.6-14.59,9.1-44.5,4.2-59.58-.92-2.83-2.2-9.52-4.37-11.12l-27.71-20.33c-5.23-3.84-7.57-11.24-10.7-16.18-6-9.49-3.34-18.48-4.52-27.75-2.24-17.56,3.79-31.01,10.43-47.02,6.5-15.68,12.72-31.12,21.16-46.47,15.84-28.8,6.37-39.84,7.78-62.52.44-7.08,7.4-16.89,3.67-24.03-4.06-7.78-3.14-12.54-2.81-21.02l.79-20.31,1.67-20.82c.74-9.25-.04-17.32,1.61-26.45,1.35-7.43,2.74-15.77,2.91-23.36l2.12-93.92c.44-19.42,1.8-37.36,5.37-56.3,2.29-12.14,2.51-24.41,10-34.51,10.04-13.53-3.5-15.73,10.99-23.78l2.97-1.65c.93-.52-2.19-4.18-3.72-4.45-19.2-3.32-16.52-22.46-23.15-37.14-2.99-6.63-5.84-12.27-8.06-18.93l-10.93-32.9c-3.54-10.65-3.33-23.84-11.38-32.92-3.44-3.87-6.28-8.4-8.23-12.77-1.24-2.77-5.52-7.55-6.55-10.54l-8.59-25.01c-8.25-24.01,2.35-22.03-4.32-33.96-1.05-1.88-4.91-2.79-8.07-2.25-6.53,1.11-2.69-3.06-9.87-22.86-2.49-6.85-5.06-12.51-8.39-18.59l-9.57-17.5c-3.8-6.95-2.97-14.06,4.06-18.67,9.2-6.04,12.21-16.15,18.18-23.95,11-14.37,27.42-24.31,41.03-35.8l19.8-16.72c37.6-31.75,73.1-64.57,104.63-102.15,6.94-8.27,4.82-16.26,5.07-25.46.45-16.67,1.3-32.03-1.69-48.75-.89-4.96-.84-12.19-.78-17.89,4.74-5.72,11.12-13.1,16.19-18.04,11.35-4.65,23.63-4.93,35.07-7.79C274.94,3.86,315.83-1.28,347.63.28l44.03,2.17c7.06.35,14.27.94,20.94,1.06l21.6.37,36.41,1.16,34.51,1.36c18.47.73,25.33,14.45,67.07,8.33l12.21,2.13c17.48,3.06,34.26,7.91,46.66,21.19-3.98,9.97-5.31,20.48-7.06,31.72l-8.77,56.41c-1.03,6.61-2.31,10.24,2.07,15.91l23.4,30.29c12.47,16.14,25.64,30.42,37.55,47.02,3.96,5.52,8.1,11.08,12.24,16.42l47.65,61.35,25.31,34.79c10.84,14.9,15.73,12.36,18.38,33.38.53,4.17-5.63,11.36-7.63,15.54-10.67,22.29-16.22,14.87-34.43,40.75-8.03,11.41-15.32,26.04-26.37,34.3-8.01,5.99-10.82,9.55-15.62,17.83l-16.84,29.11c-18.02,31.15-38.98,39.38-41.22,77.56-.79,13.38-13.84,11.43-11.8,16.29l3.18,7.59c4.62,11.03,4.48,24.74,4.74,37.31l.74,34.76c.64,30.01,1.53,58.23-2.88,88.28-1.04,7.08,1.52,20.36,8.56,22.86,16.62,5.9,33.83,2.61,50.84,3.19l125.96,4.31c51.98,1.78,102.24,3.82,154.33,2.24,23-.7,44.49,1.82,67.22,3.49l63.58,4.66c8.52.62,18.06-5.66,26.51-2.38,6.81,2.64,14.08,5.59,21.08,5.72l65.64,1.18,30.81-.75c5.58-.14,15.89-6.58,18.85-11.93,3.68-6.66,2.31-15.71,2.65-23.13.55-12.03,1.32-23.47,3.14-34.95,3.3-20.91,3.81-41.41,4.11-63.08l3.99-11.76-9.61-4.01c-4.71-6.74-2.73-17.34-6.12-24.39-15.33-31.92-36.63-59.54-53.47-90.48-6.32-11.61-9.23-23.12-18.05-33.7-13.61-16.31-5.78-39.11-29.85-50.93-15.29-7.5-14.96-24.59-20.34-30.79l-31.56-36.4c10.68-17.4,19.84-35.49,34.29-49.42l61.54-59.33c16.37-15.78,47.11-73.18,72.86-103.73l17.65-20.94c22.77-27.01,6.32-37.62,2.74-52.69-2.19-9.24-2.65-17.15-8.1-25.26-3.33-4.95-2.07-9.98-.13-15.4,4.93-13.77,20.65-15.07,35.64-17.14l29.83-4.11c5.82-.8,13.24-2.43,17.74-2.49,8.14-.11,16.18-.96,24.44-2.76,12.84-2.8,26.35-2.61,39.53-3.73,11.44-.97,22.39-2.5,33.55-2.56,1.22,0,107.16-1.99,97.64-3.45l29.83,4.57c-10.02-1.54,68.45-2.81,95.8,2.35,3.55.67,10.73,5.38,13.42,7.72,10.25,8.93-14.1,55.43,14.7,71.57,20.04,11.23,36.7,25.08,54.3,39.73,11.83,9.85,39.06,33.06,47.7,44.43,3.96,5.22,9.57,8.5,14.56,12.83,7,6.07,14.28,12.54,20.87,18.93,26.55,25.72,20.57,13.98,47.9,39,10.08,9.22,36.72,43.52,42.94,57.64l-8.29,32.19c-2.16,8.38-11.98,12.24-16.41,18.2l-13.26,17.86-3.69,13.34c-12.82-1.35-19.56,4.77-22.49,16.1-3.9,15.07-13.99,28.58-19.08,43.14l-9.95,28.48c-6.54,18.71-12.53,18.78-14.26,36.03-1,9.91-6.36,15.9-9.89,24.74l-10.9,27.3c-4.81,12.05-10.11,21.56-11.73,35.15-15.35,22.77-4.05,14.55-21.96,25.22-.78.46-3.97,2.99-3.19,3.31l4.2,1.71c10.93,4.45,18.73,14.36,19.17,27.01l1.3,37.18,4.41,44.1c.84,8.45,1.43,16.67,1.79,25.27l2.05,47.79c.47,10.89,1.09,20.94.46,32.03-.36,6.34,3.08,13.5,3.9,19.87l2.95,23.09c5.34,41.75,11.21,30.26,9.02,70.05-.32,5.8.05,11.31-4.28,15.7-10.82,10.95-5.21,44.3-4.26,58.2l3.54,52.02c.29,4.19.06,9.52.08,14.1.07,13.87,1.97,27.21,2.42,41.27l1.89,58.04,3.14,52.88c.4,6.81.58,10.92-2.82,16.88-3.77,6.61.78,15.32,1.81,22.19l4.98,33.08c1.62,10.78,1.23,22.22,1.83,33.66s-1.28,23.64-1.27,35.4v32.13c0,18.36.84,29.16,4.22,46.49,15.86,10.34,8.53-5.43,44.33,12.96,6.3,3.23,16.31,6.54,19.45,12.93,3.34,6.79,6.17,16.72,6.54,23.8l1.89,36.32.26,48.75Z"/></svg>