<?xml version="1.0" encoding="UTF-8"?><svg id="Calque_1" xmlns="http://www.w3.org/2000/svg" width="140.65mm" height="155.41mm" viewBox="0 0 398.7 440.54"><path d="M239.83,423.86c.55,2.41,1.43,5.09.84,7.3-.19.72-1.91,1.43-2.68,1.56-1.77.28-2.45,1.43-3.47,2.89-.91,1.3-3.07,2.2-4.43,3.18-1.43,1.03-2.71,1.71-4.58,1.73-12.4.11-24.67-.31-36.56-3.82l-7.46-2.2c-3.37-.99-6.4-2.72-9.4-4.5-2.29-1.36-4.6-2.48-6.99-3.65l-9.56-4.72c-2.87-1.41-5.49-3.46-8.12-5.32-6.92-4.91-11.89-7.9-18.38-13.8l-5.75-5.22c-3.21-2.92-6.47-5.19-9.56-8.14-3.85-3.68-7.47-7.09-10.82-11.31-7.21-9.09-14.27-18.26-18.71-29.09l-2.55-6.22c-1.81-4.42-4.03-8.4-5.8-12.9-5.75-14.58-8.86-29.65-12.85-44.75l-2.68-10.16-1.86-11.03-1.85-13.63-2.32-14.86-2.49-14.37c-1.51-8.72-2.85-17.05-3.58-25.86-.21-2.5-.68-5.22-1.5-7.6s-11.93-8.84-14.9-10.45l-9.87-5.33c-8.55-4.62-13.13-6.85-19.17-14.95-.89-1.19-1.58-3.56-2.05-5.07-1.09-3.49-1.07-7.74.83-10.92,1.28-2.15,4.24-3.15,6.66-3.41l10.95-1.17c3.41-.36,6.97-1.29,9.85-3.07l5.53-3.43,3.54-1.38c2.09-.82-3.38-6.24-5.1-9.3-1.94-3.45-3.69-6.59-5.29-10.27-1.24-2.83-.92-7.6.66-10.34,5.14-8.91,13.82-11.07,23.45-9.25l7.52,1.43c.97-4.41,2.86-7.58,5.02-11.26l3.68-6.29c1.22-2.08,2.07-4.27,3.57-6.19,2.34-2.99,4.22-6.3,6.73-9.13,3.55-4,7.35-7.51,11.19-11.24,2.51-2.43,5.35-4.28,8.1-6.37,6.03-4.58,16.46-7.9,23.87-9.73,3.77-.93,6.6-.43,10.3.58,2.9.79,6.49-.22,9.63.12,12.4,1.34,7.46-2.48,14.62-3.58,6.01-.93,3.96-2.75,11.46-2.92s6.63-5.29,12.55-6.04c2.23-.28,4.83-.06,6.55-1.73,1.23-1.19,1.88-3.84,3.13-4.83,4.83-3.85,3.74-4.32,7.91-4.65,3.4-.27,6.23-3.85,7.65-6.46,1.53-2.81,5.41,3.38,8.52,3.68,10.26,1.01,9.14-1.32,18.79,5.31,2.23.59,4.76,1.31,6.93,2.15l5.4,2.08c1.72-.89,3.49-3.6,5.5-3.16,2.39.53,4.16,2.77,6.1,4.62l6.17-.91c.66-.1,2.3-.81,2.79-.38,1.04.91,2.38,2.76,3.44,3.38,8.51,4.97,9.42,3.79,13.23,5.5,6.89,3.1,9.88-.63,18.02,4.43,1.17-.67,2.99-1.43,4.05-1.02.87.34,1.84,1.66,2.56,2.68,3.76,5.36,7.2,9.47,7.13,16.6.93,1.14,3.16,2.43,4.44,3.45,4.49,3.57,9.06,6.38,13.95,9.1l12.7,7.06c4.74,2.64,12.23,4.61,17.71,5.63,1.35.25,3.21.12,4.65.29,2.63.31,5.22-.19,7.85-.53,11.2-1.44,7.4-3.96,18.29-5.62,1.95-.3,4.66,2.68,4.99,4.46.63,3.35-.41,6.52-2.61,8.73-1.3,1.31-2.52,3.17-3.88,4.28-2.89,2.36-6.21,4-9.22,6.18-6.23,4.51-12.86,11.2-17.66,17.3-1.74,2.2-3.17,4.99-4.24,7.69-1.93,4.86-3.16,17.79-3.17,23.52v6.21c-.02,8.09,1.36,15.72,6.28,22.39,2.96,4.02,6.69,3.18,9.97,7.96,1.69,2.45,1.48,5.26.09,7.51-3.36,5.39-7.5,2.02-12.04,4.66-5.8,3.37-9.88,8.35-12.22,14.63-1.09,2.93-2.21,5.9-2.46,9.1-1.6,20.08,2.28,12.07,3.36,22.62.34,3.28-.17,5.94-2.41,8.62-1.48,1.77-4.47,3.43-7.01,2.58-2.24-.75-5.28-1.56-7.31.33l-4.89,18.97c-1.6,6.21-3.04,12.17-4.81,18.33l-2.99,10.42c-1.01,3.52-2.18,6.76-2.44,10.48s-1.01,7.41-3.01,10.42c-1.87,2.83-1.17,6.2-1.76,9.42-1.71,9.43-5.96,25.95-10.11,34.33-1.37,2.76-3.14,4.99-3.97,8.03-3.36,12.33-6.79,12.19-10.23,21.44-1.09,2.93-3.24,5.07-4.7,7.6-2.62,4.53-4.73,9.09-8.73,12.69-1.74,1.57-2.56,4.42-4.16,6.25-5.24,6-12.03,14.06-20.28,14.61-3.32.22-4.01-6.94-12.09-2.98Z"/></svg>