<?xml version="1.0" encoding="UTF-8"?><svg id="Calque_1" xmlns="http://www.w3.org/2000/svg" width="213mm" height="268.08mm" viewBox="0 0 603.78 759.92"><path d="M478.09,494.68c-7.07,6.85-5.06,10.33-12.02,18.76-1.48,1.8-3.48,4.39-2.1,6.94,1.14,2.11,4.25,3.12,6.01,4.73,3.67,3.35,7.61,5.26,11.99,7.37,6.2,2.98,12.09,5.92,18.61,8.25l15.53,5.55c3.76,1.35,7.23,2.86,11.17,3.74,5.88,1.3,11.45,3.01,16.91,5.49s12.22,9.47,16.24,14.02c8.39,9.47,13.5,8.46,24.41,19.74,4.81,4.98,9.7,9.27,14.75,13.97,1.55,1.44,3.71,4.04,3.91,6.06.4,4.13.32,7.87.08,11.98-.18,3.09-1.94,6.62-4.13,8.63-2.6,2.39-6.14.87-9.05,1.15l-6.33,2.26c-5.55,1.98-8.22-4.01-11.42-6.82-.9-.79-3.57-.65-4.57,0-2.29,1.48-5.35,2-7.63.17-4.35-3.48-5.88-8.52-5.83-13.95.03-3.73-1.54-6.78-3.85-9.49l-5.78-6.76c-3.33-3.9-7.83-6.59-12.14-9.45l-4.98-.64c-8.08-7.81-3.77-4.69-12.3-6.48l-19.08-4-42.42-7.33-6.07-.66c-1.4-.15-3.15-.78-4.52-.8-5.86-.09-11.44-.25-17.24.11l-7.29.46c-2.2.14-5.2.28-7.24,1.27-6.61,3.21-13.48,6.62-20.25,9.29-3.03,1.19,3.88,9.57,5,10.89l5.52,6.5,3.92,4.71,6.95,7.45,5.52,6c1.78,1.93,3.44,3.85,5.44,5.58l11.08,9.58c3.25,2.81,6.23,5.89,9.17,9.01,6.16,6.52,5.41,12.78,7.19,16.74,1.01,2.24-.22,3.95-1.96,5.06-2.49,4.76,3.15,12.71,5.71,16.63l3.98,6.11c.78,1.19,1.46,2.44,2.18,3.77,7.95,14.64,2.25,15.56,7.37,24.58,6.49,11.45,6.18,11.2,5.4,25.25-.42,7.62-8.11,3.54-8.93,9.87l-1.21,9.31c-.19,1.48-.95,3.66-2.22,4.4-1.51.89-3.12-.76-3.81-1.92-1.59-2.68-3.79-4.6-5.78-6.65l-1.13-1.16c-.62-.64-2.51,3.01-9.34,4.72-8.35,2.09-5.93-4.84-11.67-12.81-1.31-1.82-3.59,3.19-6.33,3.69-1.22.22-3.53-.22-4.06-1.26l-4.59-8.96c-1.12-2.19-2.77-3.88-4.72-5.32-3.36-2.48-3.18-6.87-.98-10.21,1.13-1.72,2.94-3.63,3.43-5.62,1.22-4.93,1.91-9.63,2.83-14.58,2.02-10.96-.56-21.27-4.02-31.73l-4.22-12.72c-3.43-10.35-14.34-22.47-21.75-30.45-13.73-14.77-28.4-29.33-47.13-37.33-3.46-1.48-6.96-3.07-10.86-2.43-4.57.75-9.15,2.5-13.82,2.1-5.55-.48-10.83-1.69-16.22-2.79-4.66-.95-8.77-2.64-12.88-4.87-5.92-3.22-11.35-6.59-16.63-10.87-1.5-1.22-3.58-1.98-5.36-2.82-4.9-2.29-9.73-4.06-15.12-4.93-8.57-1.39-16.39-4.42-24.36-7.7-3.5-1.44-6.54-3.19-9.64-5.33l-6.26-4.32-10.11-7.11-23.76-16.61-16.44-12.77c-8.05-6.25-8-9.48-18-17.91-7.42-6.25-4.51-8.97-11.65-14.28-6.22-4.63-6.85-10.5-10.32-17.09-1.91-3.63-4.51-6.89-5.99-10.71-4.08-10.56-7.56-10.25-9.66-19.65-2-8.94-5.27-5.73-7.18-15.97-.73-3.94-2.99-7.33-4.61-11.02-1.29-2.94-.51-6.85-1.97-9.67-2.24-4.32-4.08-7.94-3.77-13.17.14-2.35-3.52-5.84-3.27-9.86.27-4.33-.85-7.76-2.21-11.75-.53-9.86.55-4.39-2.21-12.23-1.02-2.9-.79-6.07-.84-9.24-.05-2.98-1.29-5.78-1.74-8.71-.42-2.75-.07-5.67-.32-8.54-.21-2.43-1.85-5.14-1.77-7.52.47-14.27-3-7.65-2.08-17.93.01-.13-3.56-24.67-3.47-23.2l-.39-6.43c-.14-2.41-9.71-8.67-11.7-9.79l-12.93-7.24c-1.87-1.05-3.46-2.2-5.29-3.59.12.09-14.08-11.32-9.34-10.77,10.88,1.25,13.57,6.37,26.37,7.58,1.72.16,5.94-.25,7.27-1.01,1.16-.65-5.1-4.28-5.63-4.57-3.72-2-7.01-4.04-10.34-6.5l-4.14-3.05c-2.37-1.75-5.33-2.95-7.53-4.95l-14.56-13.29c-2.95-2.69-15.52-12.67-13.7-17.59,1.2-3.22,8.61,3.81,12.42,5.34l9.71,3.9c.64.26,2.09-.27,2.45-.79.42-.6-.04-2.33-.72-2.93-5.64-5.05-10.77-10.19-15.38-16.23-1.19-1.56-.49-3.87.21-5.37l1.39-3c.88-1.89,2.38-2.64,4.43-1.88,1.29.48,2.51.87,3.99,1.28.82-4.08-4.51-5.78-5.61-9.4-.46-1.51.84-4.69,2.16-5.56,1.98-1.31,5.11-.44,7.11.7,5.97,3.39,11.51,6.67,17.87,9.44,2.34,1.02,11.25,4.5,12.99,3.57.26-.14.57-1.01.51-1.33l-1.11-6.09c-.6-3.26-.32-6.36-.09-9.73.15-2.17-1.46-4.54-1.54-6.77l-.34-10.39c-.02-.61-2.7-19.28-2.26-22.6s-1.18-6.45-1.22-9.51c-.14-9.73-2.18-18.97-5.91-27.85-1.76-4.2-2.74-9.01-3.73-13.52l-1.92-8.71c-1.01-4.58-2.64-8.76-4.96-12.8-.81-1.41-2.18-1.97-3.78-2.01l-11.04-.27c-4.44-.11-8.58-.32-12.45-2.68-2.59-1.58-6.09-3.54-6.87-6.82-.99-4.15,2.68-7.5,6.07-9.17,4.66-2.29,18.25-8.4,22.61-9.39,7.34-1.65,11.26-3.58,19.53-5.43C54.41-.08,64.55-.24,70.77.25l12,.95c5.12.4,10.09,2.05,15.28,2.16l13.28.3,39.03.09,4.88-.38,13.91-2.25,47.92-.05c5.28,0,9.78,2.57,13.95,5.12.36.15,1.61.13,1.81.45,1.3,2.06-1.62,10.98-2.63,13.73-.41,1.12-2.12,2.85-2.84,3.7-1.66,1.96,6.56,3.84,8.83,3.97l7.17.43c2.3.14,3.57.96,5.44,2.26,2.36,1.64,6,3.62,9.09,3.71,8.67.24,17.1.53,25.63-.18,3.84-.32,7.02-3.66,11.33-2.89,1.1.32,2.81,1.95,3.97,2.39l7.8,2.91c2.44.91,5.48,3,8.12,1.88l6.49-2.76,6.43-2.16,16.29-4.76,6.83-2.9c.3-.13,1.29.01,1.54.08,1.08.3-.79,2.69-2.01,3.54-14.82,10.33-9.48,10.14-12.46,12.94s-4.77,6.41-6.19,10.07c-12.67,8.58-8.31,13.06-11.85,22.37l-2.11,5.56-2.99,8.66c-2.06,5.97-3.32,6.78-4.9,13.76l-3.1,13.75c-.57,2.54-2.56,5.07-3.27,7.67l-1.96,7.17c-.91,3.34-1.89,6.55-2.45,9.99-.8,5.01-1.73,9.77-3.02,14.66-.63,2.39-2.34,4.7-2.83,7.07-.9,4.34-1.81,8.28-2.96,12.45-.56,2.01-1.24,4.1-1.62,6.13l-3.66,19.48c-.4,2.14-1.4,4.42-1.47,6.57-.22,5.88-2.11,10.84-4.45,16.02-2.2,4.89-1.05,10.59-2.37,15.64-.89,3.39-3.25,6.45-3.83,9.89-1.24,7.3,4.48,13.18,5.7,16.16l6.05,14.81c1.94,4.74,4.53,8.95,5.66,14.07.4,1.83,1.81,3.73,2.31,5.53l1.39,4.98c1.07,3.85,3.04,7.39,3.97,11.25,1.08,4.5,2.43,8.6,3.92,12.96,2.08,6.07,1.69,11.09,4.2,19.39,2.18,7.22,3.5,14.37,5.17,21.73.75,3.3,1.88,6.34,2.82,9.66.65,2.27,6.05,2.42,7.35,1.41.64-.5.92-2.34.59-3.11-.77-1.81-4.02-8.29-1.06-9.04,2.68-.67,5.8-1.01,7.72-2.91,2.11-2.09,1.46-5.87-.06-8.16-3.62-5.44-9.73-5.46-8.23-9.99,1.61-4.87,9.75.99,16.44-6.36,1.63-1.79,1.09-4.91.87-6.9-.39-3.52-2.44-4.14-4.89-5.56l-4.84-2.81c-2.52-1.46-7.77-4.52-7.25-7.26.14-.73,1.25-1.54,2.03-2.14,2.83-2.19,5.51-3.43,8.7-4.9,3.75-1.72,5.55-6.98,4.4-10.78-.86-2.86-3.2-4.79-5.04-6.86-4.6-5.17-9.36-1.08-11.1-6.51-.44-1.38.04-3.99,1.77-4.72,2.99-1.25,5.99-1.5,9.33-1.95,1.85-.25,4.89-1.77,5.66-3.71,1.15-2.9,2.38-6.79,1.72-9.94-.78-3.67-4.31-7.33-7.37-9.09-.59-.34-8.33-3.93-7.4-5.4.12-.18.79-.82,1-.85l5.87-.74c4.37-.55,8.74-1.79,11.71-4.81s2.65-7.06,2.85-10.8c.19-3.44-.37-5.68-3.24-7.61l-7.92-5.34c-1.5-1.01-3.17-2.49-3.51-4.26,2.44-2.37,5.58-1.31,8.4-.9l9.99,1.48c7.28,1.08,7.91-10.35,6.75-15.64,2.26-2.33,5.19-3.4,5.71-7.36,6.2-1.65,6.27,4.01,14.09-.61,2.68-1.59,3.41-4.59,3.24-7.93-.12-2.24,1.85-6.03,4.18-6.4,2.68-.43,4.8,2.14,6.51,3.42,3.48,2.61,8.49-1.55,11.37-2.28,2.37-.6,3.24-1.13,4.77-2.75,2.12-2.26,4.02-4.15,3.95-7.75-.05-2.26,1.79-5.14,4.27-5.65,1.36-.28,3.67,1.2,4.12,2.33,1.1,2.79,1.67,5.55,3.27,7.95,1.48,2.22,4.8,2.92,7.04,4.02,2.71,1.34,5.06,1.93,8.09,2.1,1.87.11,3.91.78,5.81,1.1,9.32,1.56,3.35-.68,10.55,2.95,2.15,1.09,3.36-.65,4.75-1.74,3.75-2.94,7.1-5.76,10.65-8.95,2.32-2.08,11.78-7.22,10.99-4.38-.88,3.17-2.09,1.67-2.23,6.82-.21,7.94-4.21,6.63-10.28,16.13-6.88,10.78-6.67,5.76-8.89,9.01-.4.59.09,2.08.71,2.34,3.49,1.42,6.72,2.75,10.3,3.63,5.04,1.23,16.43,4.83,20.94,6.85l7.52,3.38c3.59,1.61,13.71,2.23,13.62,11.22-.04,4.12-.31,7.65-2.14,11.57-.37.8,1.19,2.09,1.95,2.32,2.78.86,4.76,2.31,7,4.05,1.65,1.29,4.2,1.83,5.78,3.37,1.41,1.37,2.37,4.55,2.26,6.41-.58,9.52,3.55,10.91-.8,25.27-1.71,5.67-5.33,9.8-10.37,12.79-2.21,1.31-4.85,2.77-7.6,1.52-3-1.37-1.21-8.54-2.95-13.2-3.1-8.29-11.67-13.59-20.35-11.99-1.12.3-.72,3.26-.03,4.08l7.92,9.41c2.19,2.6,5.75,8.08,3.72,11.09-.49.73-2.19,1.77-3.12,1.4-6.87-2.69-6.27-7.59-20.25-10.69l-14.86-3.3c-3.21-.71-14.54-4.12-14.12.48s.96,8.67,2.25,12.85c1.38,4.48,2.51,9.03,4.73,13.11,1.65,3.03,2.13,6.39,3.7,9.34l8.62,16.2c3.27,6.15,8.15,19.35,6.47,25.99-.45,1.78-1.19,3.71-1.8,5.29-5.24,4.97-8.14,9.42-3.57,15.88,4.9,6.92-1.89,10.6-.8,14.41l2.65,9.23c-.47.98-1.42,2.56-1.97,3.47l.1,18.69c.01,2.75,2.28,4.83,3.47,6.99,2.53,4.6,1.83,11.16,2.85,16.5l1.2,6.24c1.87,9.73,1.97,3.63,3.08,10.83,3.98,4,6.11,8.98,6.33,14.59.1,2.68.63,7.06-1.58,9.2Z"/></svg>