<?xml version="1.0" encoding="UTF-8"?><svg id="Calque_1" xmlns="http://www.w3.org/2000/svg" width="104.74mm" height="97.33mm" viewBox="0 0 296.91 275.9"><path d="M275.84,247.11c-1,1.36-1.63,2.73-2.81,3.86-.72.69-1.43,1.46-2.31,1.95-2.92,1.64-4.8,4.4-7.48,6.19l-6.79,4.53c-2.16,1.44-4.47,2.39-7.14,2.22l-2.88-.18-6.92-.14-3.15-.2c-3.95-.25-5.95-.94-10.43-1.3-1.73-.14-3.55-.01-5.23-.51-1.16-.34-2.22-.6-3.43-.67-3.38-.2-6.55-.79-9.8-1.63l-6.1-1.58c-1.81-.47-3.52-1.09-5.22-1.8l-4.71-1.99-8.44-4.09c-1.67-.81-3.08-1.72-5.08-1.86l-3.32-.23c-3.5-.24-7-.12-10.52.02l-6.3.24-4.73.27-8.74.17c-3.7.07-7.19.86-10.75,1.9-.14,2.77-.33,3.6-1.08,6.18-1.23,4.23.31,4.73-1.13,8.73-.65.65-2.04,1.02-2.97,1.26l-4.98,1.28c-7.15,1.84-14.52,1.73-21.87,2.27l-4.77.35-3.6.32c-3,.26-5.86.36-8.89.48l-5.03.19-11.56,1.07-6.76.21-11.16.22c-3.84.08-7.41.72-11.31.7-1.21,0-2.57.16-3.81.25-4.2.32-8.75.15-12.38-2.13-1.5-.94-3.25-1.53-4.63-2.56l-3.89-2.91c-1.54-1.15-3.62-4.22-4.66-5.95-1.55-2.57-2.59-8.34-3.05-11.46l-1.6-11.06-1.39-8.37-1.02-10.07c-.17-1.71-.55-3.33-.74-5.05l-.65-5.72-.16-5.17-.26-6c-.16-3.73-.3-7.4-.03-11.17l.22-3.11.25-3.87c.15-2.31.43-4.64.93-6.87l1.06-4.67c.26-1.16.66-2.41,1.78-3.04l4-2.24c3.55-1.99,3.03-7.19,2.84-10.74l-.22-3.97-.76-10.23-.18-4.99c-.11-3.16-.92-6.15-.87-9.35.07-4.22-.24-8.26-.68-12.45-.07-.64-.02-1.5-.17-2.07-.58-2.22-.73-4.3-1.01-6.54l-.39-3.09c-.75-5.99-5.02-2.88-4.78-6.85.12-2.03,2.5-4.12,3.96-5.64,1.28-1.33,2.56-2.5,3.9-3.76l3.96-3.71,1.93-1.9,2.16-1.94,4.78-4.58,4.06-2.36c1.26-1.93,2.59-3.62,4.33-5.1l5.16-4.4,3.98-3.26,2.5-2.09c.83-.7,2.69-2,2.38-3.28l-.76-3.08c-.33-1.31-.86-2.39-.19-3.7,1.05-2.02,4.33-3.14,6.64-3.27.71-.04,1.52-1.33,1.61-2.09l1.52-12.85c.38-3.19.7-6.26,1.34-9.43l.73-3.61c.18-.9.25-1.76,1.09-2.3s.78-1.25,1.04-2.16c.52-1.8,1.82-3.6,3.33-4.74,1.22-.92,2.77-1.13,4.17-1.63,2.97-1.06,3.31.51,4.3-.48s2.17-2.17,3.53-2.38c2.99-.47,3.11-.58,6.25.63,1.35.98.11,6.39-.2,8.13l-1.21,6.78-1.22,7.54c-.96,5.97-1.27,7.34-1.42,13.66-.03,1.18-.45,2.82,0,3.89l3.15,2.14c1.29.88,3.24.87,4.76,1.25l4,.98c1.65.41,2.48,1.56,2.34,3.27-.09,1.14.19,2.74-.75,3.6l-2.16,1.96c.07.4.46,1.05.77,1.31,2.36,1.96,4.47,3.93,6.64,6.1,4.16,4.17,8.28,6.12,12.14,10.52l1.49-.79,3.59-2.08,4.44-2.41c2.83-1.54,5.23-3.62,8.13-5.01,3.5-1.68,5.7-2.95,9.47-3.93l3.62-.93,3.96-1.08c2.41-.66,4.88-1.06,7.39-1.31l5.93-.61c1.73-.18,3.36-.04,5.1.08l3.14.22c6.76.46,10.99-.89,17.11.67,1.91.49,3.93.18,5.91.47,4.32.64,5.01,1.13,9,2.39,2.3.73,4.04,2.02,5.88,3.48,1.3,1.03,2.64,1.95,3.87,3.11,1.67,1.59,3.33,3.09,5.38,4.19,1.55.83,2.62,2.14,4.02,3.17l4.01,2.97c.9.67,1.74,1.48,2.49,2.28l2.8,2.97c1.15,1.22,2.08,2.49,3.15,3.85l2.56,3.24c.75.95,1.33-2.41,1.9-3.72.78-1.8,1.26-3.41,1.7-5.28s1.07-3.69,1.62-5.55l1.59-5.32.78-3.35c.17-.74.54-2.35,1.61-2.45,1.81-.16,4.16.38,5.85.86.72.21.31,2.15,1.29,2.15,2.19,0,4.33,0,6.39.57,1.23.34,2.55.87,3.81.56,1.47-.36.79-1.55,5.45.7.81.39,1.91,1.09,1.99,2.09.18,2.33.08,4.56-.13,6.9l-.64,7.19-.46,6.74-.24,4.39-.15,10.22-.42,4.27-.17,3.15-.49,6.24c-.24,3.08-.55,8.15,2.02,10.09,2.02,1.52,3.49,3.19,4.9,5.27,1.07,1.57,3.1,2.43,4.04,4.04l1.5,2.57c.66,1.13,2.3,1.69,2.78,2.96,2.25,5.92,4.75,3.98,5.67,9.54.12.7,1.01,1.66,1.51,2.22,2.45,2.71.76,3.02,2.05,4.7,1.57,2.03,2.63,4.15,3.73,6.42l.94,1.94c.47.96.77,1.89,1.15,2.95l.94,2.61c.92,2.57,1.71,5.25,1.99,7.99.12,1.22.08,2.39.33,3.57.69,3.26.54,5.5.56,8.72l.04,6.05c.98,1.87,1.62,3.46,1.88,5.7l.41,3.55c.15,1.27-.21,2.31-.62,3.53-.17.52-.12,1.61-.35,2.08-.52,1.04-1,2.14-1.59,3-.93,1.32-2.19,2.29-2.35,4.08-.12,1.34-1.2,2.11-1.88,3.16-1.28,2-2.49,4.92-2.8,5.39-.8,1.19-1.85,2.27-2.3,3.63-.32.97-.38,2.04-.99,2.86-.86,1.15-2.14,2.19-2.72,3.48-1.84,4.07-2.98,4.3-5.43,7.64ZM162.87,199.23c.42-.54.68-1.49.91-2.12,1.65-4.44-1.54-3.94-1.25-6.78l.27-2.66.76-4.9c.27-1.74.58-3.39,1.19-5.04l1.17-3.13c.83-2.23-1.46-4.11,2.6-6.63,1.24-.77,1.9-2.42,2.79-3.59.54-.71,1.49-1.49,1.71-2.3.66-2.37,1.45-4.4,2.75-6.46l2.79-4.43c1.61-2.56,3.74-4.67,5.74-6.97.71-.81,1.85-1.42,2.48-2.24,1.35-1.77,4.05-4.62,6.11-5.48,1.61-2.49,3.94-4.3,6.73-5.49,1.14-2.15,3.06-3.54,5.26-4.52l2.66-1.18c3.68-4.2,3.84-1.57,8.28-4.68,3.5-2.45,5.71-3.41,5.96-8.03.08-1.47-.25-2.6-1.02-3.82l-1.85-2.91-1.36-2.25c-1.45-2.4-2.77-4.8-4.68-6.88l-5.27-5.73c-6-6.53-11.21-11.62-19.42-15.67-7.73-5-16.79-7.63-26-6.97-3.46.25-6.63.84-9.95,1.6l-4.12.94-7.32,2.47c-2.62.89-5.06,1.68-7.4,3.14-3.19.96-9.84,5.98-9.61,9.39.09,1.32,4.6,4.9,5.76,5.92,1.62,1.43,3.13,2.95,4.63,4.48l3.47,3.56c.16.17,2.42,3.41,1.24,4.69-.81.88-2.44.8-3.28.22-1.02-.71-1.65-.29-2.33.42-1.97,2.03-3.16,4.3-3.76,7.08l-1.72,8.09-1.82,11.87-.91,4.85c-.96,5.15-.5,4.15-.99,8.85-.59,5.73-.86,11.1.56,16.71.65,2.55,2.68,1.51,5.69,4.17.68.6,1.79,1.3,2.18,2.16,2.22,4.9,3.28,9.29,3.51,14.63l.23,5.38.19,11.81c.02.96.15,1.81.25,2.87,2.97.43,5.77.51,8.71.69,5.51.33,13.77-.32,17.49-5.12ZM60.24,94.46c5.21-2.43,16.26-3.28,21.41.39,1.16.83,1.13,2.53.65,3.82-.72,1.93-2.04,3.46-3.23,5.14l-3.36,4.78c-1.05,1.49-1.68,3.29-2.55,4.91-4.28,7.98-1.31,10.36-1.51,17.39l-.18,6.4c-.03.99-.01,1.91,0,2.91l.14,10.74c0,.72.15,1.69.25,2.41.38,2.56,2.74,4.09,5.19,4.09,1.9,0,3.65.09,5.51.25,3.28.29,3.89-2.26,4.65-5.04,1.45-5.34,2.58-11.97,3.15-17.52l.77-7.55c.29-2.86.51-5.78,1.69-8.39.65-1.44,2.02-2.87,1.09-4.55l-2.1-3.83c-1.05-1.92-1.16-3.76-.94-5.93.17-1.7.47-3.33,1.07-4.97l1.29-3.56c.68-1.86,1.03-3.74,1.15-5.81-2.62-1.6-5.21-2.54-8.08-3.3-4.36-1.16-6-.94-10.49-.45-1.74.19-3.54.19-5.32.24-4.21.12-8.17,1.01-12.35,1.51l-4.14.5-7.19,1.08c-1.45.22-6.51,1.74-8.33,2.37-.25,2.88.2,5.5.33,8.33.15,3.27.46,6.36.75,9.61l.68,7.5.27,4.26c.17,2.61.4,5.05.76,7.67l1.1,7.99c3.38.62-.31-3.26,1.12-5.11l1.38-1.79,1.75-2.95c.75-1.26,1.8-1.71,2.14-3.27.36-1.65,1.12-3.24,1.87-4.79,1.07-2.22-1.83-1.71-4.75-3.72-1.37-.94-1.78-2.68-1.23-4.13l1.31-3.5,1.25-1.39c-.06-2.53,2.29-2.54.95-4.3-.47-.62-.86-1.67-.41-2.4,1.71-2.77,5.48-2.77,7.71-3.81l4.78-2.23Z"/></svg>