<?xml version="1.0" encoding="UTF-8"?><svg id="Calque_1" xmlns="http://www.w3.org/2000/svg" width="100.07mm" height="100.89mm" viewBox="0 0 283.65 286"><path d="M118.44,249.44l-.48-5.9c-.21-2.57-.58-5.32-1.84-7.5l-1.45-2.52c.42.72-2.59-5.3-2.44-4.98-1.44-3.14-.74-3.46-2.32-7.02-1.16-2.62-1-3.64-2.72-5.46-1.45-1.54-1.66-3.48-.82-5.33.68-1.5.49-3.19.1-4.73l-1.92-7.68c-.21-.82-.35-1.51-.55-2.46-1.09-.42-2.23-.51-3.46-.58-1.64-.09-8.26-1.21-10.07-1.62-.77-.17-1.68-.01-2.07.75-1.47,2.92-2.73,5.82-3.83,8.92l-2.67,7.55c-.77,2.17-1.47,4.21-2.32,6.34-.55,1.38-.76,2.9-1.26,4.32l-2.48,7.02c-.38,1.07-.68,2.16-1.16,3.22-.86,1.92-1.51,3.79-2.24,5.75l-2.64,7.17-1.71,4.99c-.81,2.37-3.77,10.03-5.04,11.7-.78,1.02-1.69,1.7-2.08,2.99-.31,1.04-1.2,2.07-2.32,2.47-7.9,2.8-19.13,3.1-27.42,1.94-2.04-.29-7.3-.83-8.15-3.13-.7-1.89.05-3.89.27-5.8.24-2.11.2-6.55.05-8.68l-.26-3.61-.88-12.52c-.07-1-.56-1.62-1.54-1.67-1.66-.08-3.02-.72-4.5-1.42-1.19-.56-2.73-.88-3.58-1.96-1.72-2.19-1.64-7.5-.8-8.79s2.46-2.45,4.06-2.58c1.71-.13,3.14-.87,3.29-2.85.12-1.54-.77-3.2-.95-4.8l-.62-5.62-.21-3.12-.16-6.24-.23-3.85c-.1-1.67.05-5.72.31-7.39s1.57-7.8,2.67-8.98c.88-1.87.04-4.31.47-5.38,1-2.47,1.16-4.91.8-7.53-2.64-3.91-6.06-6.29-8.7-9.6l-2.57-3.21c-1.83-2.29-5.62-7.86-6.94-10.48l-1.22-2.43c-.54-1.07-.7-2.39-1.02-3.62-.41-1.59-1.24-3.66-.54-5.2.52-1.15.33-1.41.02-2.59-.42-1.59-.45-3.94-.05-5.67.63-2.74,8.24-9.27,10.67-11.06l2.32-1.7c1.94-1.43,3.78-2.67,5.55-4.28,1.01-.92,2.26-1.51,3.39-2.17,1.63-.95,3.13-1.86,4.87-2.59,1.92-.81,3.55-2.15,5.3-3.23,1.43-.88,2.69-1.72,4.04-2.76,1.25-.96,2.7-2.12,4.13-2.71l3.13-1.28,3.68-1.62c1.22-.54,2.36-1.06,3.54-1.67l3.37-1.74c1.09-.56,1.8-1.09,2.37-2.28.51-1.07.76-2.75-.47-3.47-1.65-.97-2.59-2.33-2.67-4.38-.03-.68-.39-1.85-.17-2.57.77-2.46,1.78-4.76,3.32-6.77.85-1.12,6.39-5.5,4.31-8.61l-1.34-2c-.72-1.08-.99-2.67-1.23-3.93,1.4-3.6.31-2.53,2.76-5.67,3.13-4,7.39-7.53,12.81-5.63,3.32-1.46,6.65-2.63,10.3-3.09,2.08-.26,4.14.2,6.24.34,1.86.13,3.74.28,5.51.79,1.87,1.72,4.13,1.17,5.53,1.64,2.54.85,4.68,1.08,7.2.05.45-.18,1.26-.39,1.66-.78l-.94-4.25c-.18-.8-.19-1.81-.22-2.67-.08-2.33,1.6-4.4,3.62-5.42.61-.09,1.65-.04,2.16-.2,3.21-1,4.33-.9,6.55-2.09,2.13-2.96,2.5-1.73,5.24-4.13.95-.83,1.96-1.56,3.2-1.83,1.06-.23,1.78-1.18,2.66-1.55,1.45-.62,2.95-1.09,4.47-1.59,3.41-1.13,5.05-.71,7.99-2.03.02-1.11.02-2.21.12-2.99l1.53-2.37c1.12-1.73,3.14-2.13,4.71-.79.35.3,1.25.39,1.46,0,2.55-4.84.67-1.65,3.73-4.45,1.18-1.08,2.93-.61,3.81.63l1.86,2.61c1.08-.77,1.53-1.37,2.34-2.29.97-1.11,3.44-.65,4.03.78l1.76,4.28c.14.35.26.92.49,1.08.75.56,2.13-1.61,3.92-.63,2.66,1.44,3.95,4.27,3.12,7.38.3.85.81,2.07,1.16,2.8,2.16.51,4.8,1.68,4.57,4.19-.11,1.14.23,2.17.54,3.27.5,1.74.21,3.77,1.14,5.45l2.31,2.36c2.08,2.13-1.23,6.23-1.68,8-.2.77.21,2.09.12,2.95-.39,3.71,1.37,2.71.87,8.64-.06.76-1.2,1.66-1.39,2.32-1.48,5.4-7.09,4.12-11.37,6.71-1.58,1.26-.92,8.59.31,10.04,1.31.76,3.21,1.03,4.74,1.23l3.48.46c2.06.27,4.06,1.01,6.08,1.43l3.43.7,2.89.69c3.69.88,7.11,2.16,10.16,4.57,4.74-.29,4.77.59,8.91,2.11l3.16,1.16c3.53,1.3,6.95,2.71,10.38,4.26l4.58,2.07c.86.39,1.64.96,2.49,1.34l4.11,1.89c1.03.47,1.83,1.59,2.78,2.21,1.76,1.14,3.52,2.42,5.42,3.23,2.19.93,3.95,2.02,6.03,3.13l3.55,1.9c1.9,1.02,3.8,2.06,5.42,3.48,2.51,2.21,5.08,3.98,7.86,5.85s5.64,3.98,8.76,5.62c1.58.83,2.71,2.05,3.26,3.72,2.25,1.48,1.65,5.08.7,7.1-.56,1.2-.23,2.21-.3,3.39-.19,3.61-2.04,6.81-3.07,10.16s-2.59,5.68-4.37,8.43-3.74,5.5-6,8.13l-1.68,1.95c-1.39,1.61-1.99,3.31-1.26,5.39.66,1.89,1.08,3.88,1.46,5.89l.98,5.2c.24,1.3.27,14.86.03,16.48l-1.98,13.09c-.42,2.77-2.25,6.35.12,7.87,1.41.9,2.9,1.96,3.48,3.58s.7,3.74-.34,5.15c-1.84,2.5-5.08,3.63-8.04,3.42-.23-.02-.91.45-.95.69l-.97,6.25-.34,3.35c-.21,2.08-.81,4.03-.85,6.12l-.17,8.53-.23,3.15c-.1,1.31-.47,2.8-.92,4.03s-2.01,1.46-2.98,1.85c-1.19.48-2.28.85-3.54.98-3.77.38-7.8.39-11.57.21-1.51-.07-2.97-.35-4.45-.53-2.78-.35-5.32-.9-7.98-1.62-3.83-1.03-6.97-3.01-8.83-6.63-.75-1.45-.9-3.25-1.37-4.87-.66-2.33-1.33-4.5-1.74-6.9l-1.61-9.36c-1.18-6.88-2.06-13.64-3.56-20.43-.77-3.46-1.95-6.58-3.01-9.9-.72-2.24-2.56-7.77-4.06-9.51l-2.89.69-6.73,1.4-5.88.96c-1.16.19-2.25,6.55-2.46,7.82-.7,4.21,1.08,2.57-.06,5.59-.19.51-.38,1.13-.64,1.62-.34.66-1.2,1.46-1.32,2.18-.32,1.8-.58,3.46-.74,5.23-.27,2.99-1.01,7.06-2.99,9.33-.76.88-.72,2.34-1.13,3.4l-1.32,3.42c-.47,1.22-.78,2.56-1.04,3.85l-1.84,9.4c-.38,1.93-.82,3.69-1.32,5.59-.39,1.45-.57,2.98-.84,4.47l-.96,5.18c-.35,1.87-1.46,6.76-1.52,7.64l-.26,4.07c-.21,3.22.75,6-2.41,7.73-4.99,2.73-15.09,3.26-20.81,3.44-7.63.24-10.35.24-17.89-.77-3.07-.41-6.92-1.59-6.7-5.36l.16-2.92.21-9.65c.04-1.74.18-3.44.05-5.2-.46-6.05.23-1.97-1.58-7.5-.54-1.64-1.2-3.2-1.35-5.02ZM98.55,67.66c1.81-1.35,3.07-3.46,2.9-5.67-.06-.82-1.35-1.44-2.08-1.45-4.77-.07-9.22-.74-13.9-1.4l-4.1-.58c-1.5-.21-3.27-.34-4.58.41-.3,1.47-.24,3.18.09,4.62l1.35,5.9c.28,1.21.91,2.47,1.29,3.68.29.95,1.19,1.12,2.1,1.1,4.98-.09,13.01-3.68,16.94-6.61ZM45.86,207.78c.62-.4.93-1.24.59-1.87-.29-.54-.95-.76-1.58-.98-1.5-.54-2.71-.53-4.25-.16-.64.15-1.84-.54-2.55-.14-1.28.71-.12,3.71,1.1,4.51,1.13.74,2.72.72,3.87.45l2.82-1.8Z"/></svg>