<?xml version="1.0" encoding="UTF-8"?><svg id="Calque_1" xmlns="http://www.w3.org/2000/svg" width="144.25mm" height="144.32mm" viewBox="0 0 408.9 409.09"><path d="M166.37,405.53c-7.76-3.23-10.35-.77-15.89-3.81-2.75-1.51-5.52-2.25-8.7-1.95l-8.21-3.44c-5.68-.78-10.47-3.38-15.36-6.5-2.33-1.49-5.64-1.95-7.78-3.81-.88-.77-1.83-1.89-2.78-2.34-2.93-1.38-4.94-3.25-7.11-5.55-6.35-6.71-3.97-6.61-11.04-8.26-3.35-.78-6.07-3.84-8.71-5.96-6.05-4.87-13.56-13.69-16.7-16l-7.49-5.49c-1.93-1.41-4.71-6.35-7.14-9.11-1.9-2.16-3.49-4.15-5.03-6.59-1.83-2.9-4.58-5.5-6.13-8.59-1.44-2.87-2.39-5.63-4.55-8.07-3.81-4.3-4.77-8.27-8.45-14.12-.99-1.57-1.53-2.83-2.36-4.44l-5.46-10.57c1.6,3.1-6.63-15.04-5.51-12.23l-3.7-9.32-2.26-8.42c-2.41-8.97-3.28-13.23-4.56-22.46C-.02,217.98-.21,215.34.17,204.49l.5-13.89c.16-4.43.18-8.38,1.28-12.63,1.39-5.34,2.11-10.87,4.6-15.79,1.17-2.32,1.59-4.58,2.73-6.91l4.93-10.04,3.68-11.24c1.57-4.8,3.39-9.18,5.49-13.67,1.41-3,2.86-5.5,4.31-8.44l2.51-5.1,3.6-6.13c4.37-7.45,8.17-14.33,14.1-20.79l11.04-12.02c.75-.82,2.05-1.65,2.65-2.55,1.21-1.83,2.52-3.24,4.5-4.3,1.79-5.16,6.3-7.8,10.1-11.47l5.98-5.77c1.87-1.8,4.49-2.58,6.26-4.43,1.36-1.43,2.59-3.41,4.16-4.41s3.4-1.8,4.89-2.9c1.97-1.46,3.81-3.45,6.04-4.42,5.44-2.38,8.27-4.42,12.53-6.13,1.59-.64,3.39-.95,4.76-1.94,2.51-1.8,4.97-2.72,7.93-3.53,2.21-.6,4.33-2.78,6.43-3.63l7.81-3.15,3.51-1.42c1.4-.57,3.06-1.29,4.73-1.56l5.8-.95c1.64-.27,2.86-.39,4.59-.9l4.2-1.24,19.11-.35,6.27-1.19c4.12-.78,8.28.11,12.47-.29,8.66-.84,17.14-1.72,25.7-1.12,3.07,1.05,6.15.96,9.35.96,3.84,0,7.41.9,11.12,1.57l5.79,1.04c6.14,1.11,22.18,8,23.33,8.34l5.57,1.64c2.54.75,6.85,4.06,12.15,6.19,1.88.76,3.73,2.38,5.48,3.52l7.85,5.13c1.77,1.15,3.12,2.23,4.99,3.22,8.31,4.41,15.6,10.35,22.49,16.68.12,1.7,1.39,2.05,2.39,2.94l4.89,4.32c1.68,1.48,3.41,3.07,4.81,4.77,1.01,1.23,1.81,1.74,3.23,2.55,3.72,2.14,6.39,5.72,9.47,8.64,2.32,2.2,3.87,4.7,5.73,7.26,2.31,3.18,4.45,6.17,6.32,9.68l7,13.13,3.93,7.97c1.19,2.42,2.63,4.66,4.01,7.06.76,1.32,1.06,3.11,1.65,4.59,1.27,3.19,2.7,6.11,4.2,9.25.75,1.58.73,3.47,1.04,5.24l2.29,13.01,2.99,12.59,1.78,9.88c.62,3.44.9,6.64,1.11,10.11.28,4.77,1.76,9.31,2.51,13.94.45,2.79.73,5.36,1.75,7.99s-.31,5.29-.36,8l-.37,20.8-1.59,9.73c-.51,3.1-.87,5.86-1.7,8.82-1.55,5.53-2.76,10.99-5.07,16.24-2.55,5.8-3.04,11.04-5.7,15.4-5.19,8.51-3.02,8.28-7.39,16.14l-6.51,11.7-2.68,4.42-2.36,4.42c-.95,1.77-2.15,3.19-3.35,4.8l-6.15,8.23c-4.23,5.66-9.86,12.86-14.96,17.63-2.69,2.52-5.7,4.42-8.17,7.25-2.18,2.49-4.74,4.51-7.17,6.73-2.62,2.39-5.13,4.44-8.08,6.43l-7.68,5.16-5.18,3.57-9.26,6.47c-3.29,2.3-6.79,3.71-10.19,5.69-8.51,4.95-17.75,8.51-27.31,11.25-4.14,1.19-7.86,2.35-12.33,2.84-3.77.42-7.49,1.99-11.57,1.19-3.76,1.57-7.65,1.4-11.67.87-4.8.91-9.61.79-14.54,1.1-3.55.22-6.99,1.14-10.62.1-3.29,1.12-6.43.65-9.84.41l-8.44-.59c-4.51-.32-8.56-.45-13-1.55-2.7-.67-6.05.07-8.9-1.11Z"/></svg>