<?xml version="1.0" encoding="UTF-8"?><svg id="Calque_1" xmlns="http://www.w3.org/2000/svg" width="85.5mm" height="68.62mm" viewBox="0 0 242.37 194.5"><path d="M17.22,135.21c-1.49-.5-2.61-1.39-3.9-1.93-2.5-1.04-4.61-2.39-6.31-4.55-.65-.82-1.31-1.78-1.34-2.94l-.16-6.15-.88-3.6-.04-7.94c-.01-2.82-1.3-5.35-.53-6.68.44-.74,3.19-.26,3.85-1.48.9-1.69-.03-3.99-1.76-4.78-.39-.18-1.15-.27-1.64-.38-.71-1.16-.68-2.56-.97-3.89l-.72-3.28-.67-3.5c-.35-1.83-.58-3.53-.97-5.35l-.85-4c-.31-1.44-.55-3.15,0-4.56.62-.73,1.71-1.85,2.45-2.36,2.33-1.1,4.46-1.91,6.59-3.19,1.73-1.04,3.69-1.58,5.64-2.26,3.44-1.19,6.83-2.09,10.46-2.51l8.19-.95c2.49-.29,5.36-.25,7.69-1.22,3.64-1.51,6.65-4.13,10.02-6.14,2.74-1.64,5.18-3.28,7.59-5.5-.99-1.34-4.03-1.57-5.53-2.82l-1.29-2.82c-.46-1.02-.75-2.05-.37-3.13s-.16-1.84-.58-2.77c-.65-1.42-.78-3.48-.07-4.87.29-.56.8-1.12.6-1.88-.55-2.09-.3-4.46,1.3-6.05.37-.37,1.7-.62,1.64-1.35-.26-3.34,1.8-6.29,5.14-6.95,9.38-1.83,17.1.27,26.12,2.38l18.25,4.27c2.03.48,4.29-.02,6.38.13,7.67.56,15.18-.03,22.84-.61.36-.03.88-.05,1.04-.23.59-.66-.08-2.72,2.41-3.37.18-2.22-1.77-5.35.76-6.12l2.42-.74v-2.57c0-3.14,3.15-3.4,5.71-3.45l.84-1.69c1.25-1.2,2.9-1.57,4.58-1.36,2.28.28,4.51.62,6.65,1.48,4.41,1.78,8.32,4.09,12.41,6.52,6.84,4.08,13.18,8.47,19.33,13.51,1.91,1.56,3.81,2.86,5.71,4.38l6.78,5.43c10.09,8.09,18.34,17.65,24.06,29.28,3.22,6.55,5.72,13.31,7.16,20.54,1.23,6.2,2.79,5.09,7.5,8.6,1.2.89,1.48,2.56,1.61,3.9.55,5.91-5.45,8.37-6.99,12.44-1.14,3.01-1.21,6.32-2.12,9.41l-3.01,10.26c-1.71,5.83-4.87,10.89-8.26,15.96l-2.89,4.32c-5.08,7.6-10.43,13.52-18.09,18.55-1.87,1.23-3.51,2.46-5.22,3.92-4.56,3.87-9.11,7.48-13.96,10.97l-9.06,6.54c-3.41,2.46-6.79,4.65-10.56,6.51-2.9,1.43-5.85,2.18-9.16,1.85-1.76-.18-3.95-1.08-4.9-2.56-.53-.83-.59-1.38-1.8-1.28-1.54.13-3.28-.15-4.53-1.12-.97-.75-.92-2.24-1.09-3.26-1.16-.26-2.49-.55-3.49-1.39-1.45-1.22-1.22-3.48.35-4.86l-2.06-2.78c-6.53.11-12.81-.59-19.35-.63l-15.12-.09c-2.28-.01-4.37.11-6.58.64l-10.65,2.57-14.25,3.47c-1.98.48-3.84.69-5.84.94-3.3.41-6.6-.7-8.36-3.76-.43-.75-.35-2.08-.56-2.99-.63-.44-1.79-.87-2.33-1.42-1.27-1.3-1.68-3.37-1.16-4.99.15-.45.3-1.05.34-1.48.04-.36-.79-.69-1.07-1.09-.97-1.36-1.16-3.65-.51-5.18.2-.46.63-1.08.65-1.45.06-1.07-1.77-1.41-1.5-2.98,1.16-6.7,5.36-5.83,5.9-7.67.05-.19-.21-.54-.4-.69l-4.53-3.69c-1.82-1.49-3.47-3.06-5.52-4.29-1.64-.98-3.35-2.26-5.34-2.5-7.54-.92-14.79-2.22-22.11-4.69ZM151.5,62.16c1.74-2.37,1.32-5.17-.4-7.18-1.62-1.89-3.94-2.48-6.33-1.35-1.09.52-2.24,1.65-2.89,2.7-.55.89-.33,1.84.42,2.35,2.11,2.93,5.67,4.35,9.2,3.48ZM22.88,85.75c2.03-.83,4.43-3.08,2.82-4.6-1.66.38-3.93,2.23-2.82,4.6ZM24.62,112.25c.05-1.04-.08-2.16-.15-3.2-1.67.1-2.4,1.63-2.41,3.16s.85,3,2.42,3.14l.14-3.09ZM148.21,145.15c2.31-.98,3.67-3.47,2.72-5.82-.99-2.47-3.71-3.95-6.29-3.16-2.83.86-4.43,4.04-3.72,6.77.5,1.94,2.11,2.96,3.97,2.91,1.17-.03,2.16-.22,3.31-.7Z"/></svg>