<?xml version="1.0" encoding="UTF-8"?><svg id="Calque_1" xmlns="http://www.w3.org/2000/svg" width="156.85mm" height="172.68mm" viewBox="0 0 444.63 489.5"><path d="M257.8,487.91l-15.15.87-10.27.4c-9.61.37-19.05.45-28.64.07l-11.47-.46c-9.8-.39-19.27-1.27-29.05-2.51l-6.51-.82-8.24-1.06c-4.28-.55-7.45-4.42-11.02-6.41s-3.55-5.51-4.75-8.89l-6.23-17.6c-1.54-4.35-2.74-8.82-5.03-12.81-4.37-7.62-8.43-14.98-12.13-22.91-2.03-4.36-4.13-8.4-6.46-12.63-4.13-7.52-7.29-15.1-10.79-22.96-4.27-9.58-7.93-18.91-10.78-29.03l-3.79-13.45c-.71-2.52-1.18-4.82-1.83-7.41l-4.89-19.45-1.16-5.91-2-9.48-4.55-24.19c-1.04-5.53-2.44-10.72-3.14-16.39l-2.01-16.21-.93-10.22-.42-4.02-1.08-10.37-1.51-17.84-.73-6.67c-.76-6.94-1.14-13.66-1.1-20.67.06-9.69-.51-18.98-1.04-28.71l-.5-9.12-1.13-10.34c-.86-7.86-2.43-15-4.35-22.64l-2.5-9.95c-1.64-6.55-4.11-11.02-7.48-16.68-2.46-4.13-4.53-8.32-7.71-11.91l-9.7-10.94-7.27-8.05c-2.15-2.38-3.94-5.04-5.84-7.68-2.09-2.9-3.27-6.38-4.5-9.81-.94-2.62,3.23-5.48,4.52-5.34.89.1,1.98.74,3.3,1.47l2.89-1.9c8.82-.21,4.14-3.37,12.21-4.95,2.59-.51,9.92,1.25,12.65,2.48l3.92,1.76c5.9,2.66,9.86,3.39,16.06,6.04l6.76,2.89c2.18.93,4.48,2.51,6.82,3.1,2.87.72,6.03.39,8.62,1.57l8.24,3.75c8.51,3.88,12.73,8.19,21.21,11.03,6.66-7.16,7.54-4.18,16.19-7.25l3.91-1.38c8.31.72,7.32-4.44,18.61-6.97,1.58-.35,2.66-1.41,3.82-2.44l7.59-6.79c1.66-1.48,3.71-3.2,5.73-4.13l4.76-2.2c3.25-1.5,6.46-3.4,9.88-4.4l7.04-2.05,4.48-1.67,6.75-1.71c1.57-.4,2.88-.82,4.54-1.24L211.23.05c.75-.19,2.56.23,3.31.27l10.6.55c2.68.14,5.29,1.2,7.73,1.62,4.19.72,7.27,1.41,10.99,3.78l4.43,2.83c3.7,2.36-.62,4.61,10.81,3.91,2.24-.14,3.78-.92,5.77-1.49,3.23-.94,11.28-.33,15.11.2,5.37.75,10.06.3,12.96,2.99l4.27.62c1.75,1.03,3.1,1.75,5.15,1.49,1.48-.18,3,.37,4.36.58,9.5,1.47,8.95,4.99,9.94,6.13l2.28,2.65c.67.57,2.64,1.61,3.57,1.52l3.82-.37c1.77,3.34,3.31,1.19,6.23,1.55.49.06.86,1.4,1.2,1.78,2.38,2.64,6.43,3.26,9.7,1.89,2.22-.93,5.23-.88,7.24-1.88,13.78-6.82,11.6-3.19,18.64-5.92,4.57-1.77,8.96-3.14,13.62-4.5,10.9-3.18,5.89,1.14,14.46-2.26,2.59-1.03,5.68-.84,8.54-1.2,8.89-1.12,6.52-1.17,10.02,1.61.99.78,2.85.12,4-.35,2.61-1.07,4.92-1.97,7.68-2.91.98-.33,2.98-.15,4.26-.37,2.16-.37,4.73.57,6.55,1.28.62.24,2.59-.09,3.03.4,6.64,9.31,1.22,13.86-3.8,20.61-10.29,13.85-14.61,11.33-27.62,33.36-2.65,4.49-4.45,9.05-5.63,14.12-.46,1.98-1.23,3.85-1.82,5.79-8.98,29.93-6.19,49.35-8.03,79.22l-.9,14.68-1.47,24.93c-.24,4.03-.39,7.99-.89,11.96l-1.46,11.6-1.93,14.88-2.22,15.44-3.39,22.48c-.26,1.73-.47,3.1-.87,4.69-2.24,8.8-2.73,14.23-4.78,22.72l-2.21,9.16c-.49,2.04-.76,3.91-1.39,5.92-1.13,3.58-2.26,7.26-2.91,10.91-.73,4.09-1.58,7.62-3.04,11.37l-4.89,12.51-6.32,15.72c-3.21,7.98-7.38,15.23-10.82,23.18l-6.68,15.42-5.33,12.41-10.11,27.8c-1.66,4.56-6.59,17.21-8.62,20.91-1.65,3.01-6.35,3.88-9.42,4.23l-7.49.85c-13.32,1.51-26.29,3.86-39.7,4.62Z"/></svg>