<?xml version="1.0" encoding="UTF-8"?><svg id="Calque_1" xmlns="http://www.w3.org/2000/svg" width="444.09mm" height="1071.78mm" viewBox="0 0 1258.85 3038.13"><path d="M1060.35,2923.44c-29.62,23.8-89.62,56.5-125.09,72.66-31.08,14.17-60.23,28.72-92.92,39.36-11.82,3.85-27.49,2.74-40.12,1.57l-92.62-8.63-102.99-15.58-90.11-14.11-115.92-18.42-29.99-4.79-207.53-33.58c-46.74-7.56-91.21-15.78-137.12-25.86-6.84-1.5-13.38-4.5-19.89-7.36l5.81-7.4c-9.14-6.53-13.33-16.11-11.43-27.36l6.14-36.25c12.16-71.77,34.12-139.64,54.2-209.58l35.25-122.82,16.61-60.01,15.22-51.33,29.01-113.81,3.02-12.47,18.3-83.51c6-27.39,10.01-53.78,13.06-81.76l6.61-60.73c-39.9-33.7-69.81-72.99-93.83-118.41-25.43-48.1-47.39-97.74-50.82-152.95-2.38-38.22-1.86-75.05-.28-113.41,1.81-44.07,12.8-86.44,26.59-127.66,7.82-23.36,17.79-43.87,28.49-65.79l23.37-47.84,14.76-29.6,9.35-19.43c38.37-79.76,73.84-134.24,123.43-206.07l22.11-32.02,34.65-45.64,14.2-18.3c2.34-6.43,5.55-12.1,9.53-17.66l42.19-58.81c-4.82-10.37-10.14-19.25-15.96-29.21-17.41-29.82-33.48-59.07-48.54-90.09l-41.34-85.15c-30.65-63.13-78.13-183.07-96.36-249.53-2.96-10.78-2.03-20.45,3.48-29.85l27.1-46.28,9.75-16.91,49.76-68.83c15.48-21.41,32.17-40.24,48.88-60.37,13.92-16.76,28.31-31.29,45.79-44.89,25.65-35.17,58.59-61.56,96.02-84.11,5.6-3.37,10.08-11.25,15.4-15.3,25.3-19.28,50.65-36.89,78.13-52.96l35.01-20.48C656.41,66.24,783.33-1.31,834.18.02l29.63.78c35.64.93,45.09-9.09,58.51,22.9,10.13,24.14,11.7,48.27,15.26,73.86,4.37,31.38,10.96,61.16,16.57,92.52l34.05,190.17,14.97,88.62,20.25,132.79c16.95,13.47,27.33,29.64,37.03,47.98,4.13,7.8,7.86,15.08,9.27,24.02,9.98,12.77,17.01,27.59,21.09,43.7,5.88,9.44,9.18,19.5,11.83,30.66,1.45,6.11,4.55,11.86,6.83,17.51,6.5,16.14,12.96,32.22,18.21,48.82l8.74,27.67,16.25,53.73c4.72,15.61,10.98,29.97,13.57,45.96,13.14,24.26,9.15,29.23,16.93,52.33l8.27,24.57,8.51,25.59,21.16,59.34c1.08,3.02,4.82,7.86,5.7,11.02,1.68,6.04,3.28,10.79,5.34,16.03l17.3,44,9.18,24.13c-.24,15.38.95,31.95-.51,47.36l-4.35,45.92c-2.15,22.68-8.52,47.2-13.55,69.87-6.8,30.59-16.58,59.08-29.72,87.53-3.97,8.59-6.55,17.7-5.72,27.28l6.46,74.19,5.38,48.54,5.03,54.87c1.76,19.24,3.82,37.82,6.47,56.69l11.53,82.33c2.45,17.5,3.23,34.43,4.48,51.92,1.41,19.74.08,37.86-.38,57.67l-2.87,124.67-1.7,46.11-2.36,73.22-6.81,252.93-1.27,88.53c-.26,17.8-1.21,34.67.27,52.31,1.57,18.82,2.14,37.36,1.88,56.2-.13,9.91-1.93,20.56-1.01,30.03l2.07,21.33c2.03,20.96,1.48,78.98-4.97,98.4-12.82,38.64-6.56,21.85-38.51,53.39-27.4,27.05-54.65,52.32-83.73,77.36-7.7,6.63-10.99,14.12-16.04,22.83-5.85,10.1-19.3,16-28.31,23.24Z"/></svg>