<?xml version="1.0" encoding="UTF-8"?><svg id="Calque_1" xmlns="http://www.w3.org/2000/svg" width="935.11mm" height="1382.29mm" viewBox="0 0 2650.71 3918.29"><path d="M613.86,3760.68c-21.48-9.38-36.01-20.27-59.46-23.15-27.18-3.33-210.03-91.39-234.86-113.98l-51.55-46.9c-53.57-48.73-119.36-91.67-149.11-175.61-10.79-30.45-20.02-58.1-18.78-91.99,1.61-44.09.44-87.23,7.62-130.72l26.62-161.41,19.85-103.41,14.75-82.62c5.64-31.59,4.74-61.8,9.77-93.83l16.22-103.25c8.69-55.31,9.79-105.47,32.72-157.68,7.4-16.84,11.37-40.45,16.07-60.3,18.99-80.11-23.39-115.65-23.93-162.73-.18-15.39,10.01-34.29,11.07-49.41,1.7-24.16,10.59-42.51,34.02-52.28-.53-39.44,6.78-75.29,15.94-113.18,8.04-33.26,13.7-65.46,19.29-99.99,18.17-112.15-19.46-82.09-9.65-135.72,10.64-58.18,24.76-48.81,48.17-97.99l.43-207.79c.02-8.17-10.69-19.98-15.68-26.24l-22.88-28.75c-10.07-12.66-2.45-38.39-11.43-53.05-18.47-23.55-91.18-1.89-113.84-35.49-20.08-29.77-18.77-78.95,3.77-107.06,17.31-21.6,37.69-38.04,50.15-61.02,18.83-34.73,24.12-68.21,22.37-106.8-2.43-53.65-43.06-27.21-54.91-52.87l-20.85-45.16c-38.45-5.8-97.3-6.69-106.81-50.39l-14.3-65.71,36.17-75.51c26.37-55.04,4.71-80.68.91-123.46-9.49-106.59-17.04-211.38-41.19-316.29C41.57,310-36.15,23.57,20.53,19.55c48.57-3.44,82.09-8.58,122.53,18.3,34.3,22.8,59.09,53.64,82.34,87.11,14.99,21.58,36.02,44.57,44.03,68.33,9.77,28.97,24.58,37.08,48.61,50.85,39.71,22.76,80.23,38.78,127.72,26.76,40.62-10.28,135.46-13.7,192.34-23.46,60.34-10.36,82.98-81.41,189.95-134.16,26.02-12.83,57.57-14.31,86.49-13.55l111.46,2.91c28.86.75,54.49,5.57,79.75,20.02,19.82,11.34,47.68,19.03,60.13,39.65,22.22,36.78,34.98,77.31,45.71,119.35,6.55,25.66,5.59,76.53,17.52,84.92,10.88,7.65,34.29-30.56,39.77-40.5,18.72-34,37.85-66.97,48.13-104.74,7.38-27.11,6.14-55.2,9.35-83.8,1.62-14.48,10.6-30.05,17.14-43.85,14.69-30.98,34.76-61.86,64.88-79.46,33.46-19.55,72.55-13.67,108.94-12.45,30.36,1.01,51.65,11.93,78.97,23.31l127.45,53.07c62.18,25.89,122.35,47.67,187.29,65.79,21.24,5.93,40.22,12.63,61.94,15.54,26.12,3.5,52.08,13.26,78.63,15.27,48.11,3.65,96.15,2.77,143.81-1.16l71.37-5.88c10.6-.87,23.18-7.31,33.51-10,24.41-6.37,46.48-12.03,68.44-23.95l68.41-37.14c20.9-11.35,39.03-33.12,62.97-39.43,28.71-7.58,59.2-2.18,88.57-1.15,18.86.66,35.87,7.96,42.39,28.14,21.93,67.9-.94,178.58-21.32,248.22-12.08,41.26-10.88,77.26-12.35,118.95l-7.07,200.91c-.98,27.72,1.33,53.27-.1,80.62l-1.76,33.68c-4.83,92.35,96.93,55.59,49.8,166.95,4.28,37.92-7.87,78.83-44.27,95.63-25.24,11.65-53.37,22.26-65.34,50.81-6.85,16.34,8.28,48.71-70.95,83.24l1.53,79.1c30.62,14.53,90.7,83.24,75.37,113.06-14.83,28.84-46.3,50.14-73.18,66.91-58.15,36.27-114.49,7.28-118.66,39.28-2.65,20.34-13.08,38.56-34.06,43.16l-43.49,9.55c.62,14.28,3.93,28.82,9.51,43.29,9.9,25.65,11.7,56.7,22.71,81.36,19.38,43.41,16.47,85.64,28.07,130.88l70.23,273.96,48.31,201.44,84.16,495.04,32.35,178.95,22.63,83.12c11.07,40.66,5.32,83.73,21.8,122.91,6.22,14.8,18.99,30.03,20.96,46.08,10.59,86.41,20.43,123.55-53.18,183.34-5.5,9.65-9.95,25.61-15.84,34.02l-28.55,40.72c-24.23,34.56-65.74,48.07-96.22,73.17-22.17,18.25-37.87,37.22-64.04,51.48-95.07,51.81-187.96,103.67-289.11,143.16-17.88,6.98-33.93,15.53-52.48,20.86l-477.63,137.33c-57.05,16.4-111.55,19.96-169.17,24.4l-85.41,6.58c-94.61,7.29-56.5,15.84-118.45,23.46-15.75,1.94-33.29,9.2-48.75,8.41-21.66-1.12-45.17-6.87-65.09-4.63-71.41,8.05-50.1-7.55-123.53-14.61-15.71,19.01-33.5,11.74-52.85,8.55-60.9-10.04-28.67-61.63-49.28-65.99-23.08-4.88-47.49-14.04-69.03-22.35l-49.91-19.27-39.98-14.92c-5.39-2.01-15.88-4.3-21.9-6.16l-41.62-18.17Z"/></svg>