<?xml version="1.0" encoding="UTF-8"?><svg id="Calque_1" xmlns="http://www.w3.org/2000/svg" width="122mm" height="63.86mm" viewBox="0 0 345.81 181.03"><path d="M291.74,167.37c-2.27.64-4.62.09-6.87.15-6.99.18-10.89-.64-17.72-1.03l-3.84-.22-4.83-.25-32.34-.17-17.04-.25c-1.72-.03-3.32-.1-5.04-.01l-5.28.26-17.42.22-7.59.17c-.83,2.76.03,5.57-.9,7.84-.68.15-1.53.21-2.47.3.36,1.74,2.39,2.7,2.27,3.9-.18,1.78-3.99,1.67-5.53,1.72l-14.69.51-5.94.25-15.67.19-30.14.09c-1.34,0-2.55-.18-3.86-.11-1.23.06-2.37.03-3.6,0-4.33-.1-8.57.04-12.87.02l-6.81-.04-29.46-.59c-4.08-.08-7.86-.23-11.87-.06-2.58.11-5.09.12-7.67-.01-3.19-.16-6.27-.01-9.49.06l-7.76.17c-1.81.04-3.69-.15-5.37-.61-1.16-.32-1.44-1.59-1.48-2.59l-.18-4.34-.21-6.35c-.11-3.55-.02-6.99.01-10.56l.19-17.82.29-10.02.25-14.62.23-13.92.22-14.2.23-9.36.2-4.68.17-2.88c.07-1.17.32-2.25.35-3.41l.2-6.43.17-3.61c.05-1,.31-1.94.35-2.92l.23-6.83.29-3.5.2-10.15.23-7.54c.05-1.73.08-3.31.02-5.07s.26-3.5.35-5.23l.15-2.92.18-6.42c.02-.72.82-2.03,1.44-2.33,1.06-.53,2.57-.73,3.85-.74l15.13-.2,29.5-.23,6.23-.26,9.63-.23,14.86-.23L97.02,0h24.41s17.49.23,17.49.23l20.43.22,14.91.21c1.18.02,3.71.18,4.2,1.2.17.35-.2,1.04-.46,1.44l-.53.83c-.14.21.58.59.84.62,2.04.26.26,3.28,1.67,4.49,2.86,2.44.64,4.09,2.27,4.27,4.45.48,12.68.31,17.38.17l9.09-.27,13.96-.24,18.45-.23,11.23-.24,7.75-.23c10.73-.31,21.35-.16,32.07.22l5.43.19c1.18.04,2.28.14,3.49.25.75,1.36,1.08,2.72,1.02,4.25-.07,1.88.09,3.66.18,5.52.13,2.64.16,5.24,0,7.86-.2,3.21-.28,6.37,0,9.55.24,2.75-.07,5.25-.07,8.05l-.07,32.12c0,.98.24,1.97.57,2.82,1.6.24,3.1.01,4.65-.19,3.87-.51,7.48-1.47,11.01-3.15.93-.44,2.09-.66,2.97-1.18l11.91-7.03c1.67-.99,3.13-2.42,5.01-3.06,1.33-.45,6.47-.06,7.01.15.27.1.54.73.54,1.11l-.1,21.34-.06,6.7c-.01,1.66-.37,3.36-.25,5.08.23,3.24.08,6.35.07,9.59,0,2.91.17,5.64-.18,8.53-1.35.61-6.65.68-8.03.46-1.26-.21-2.32-1.21-3.37-1.84l-5.1-3.07c-2.5-1.51-5.11-2.68-7.76-3.97-5.46-2.66-11.06-4.43-17.14-5.06-.66-.07-1.7-.54-2.28-.14-.34.61-.23,1.69-.33,2.43-.34,2.61-.38,5.06-.43,7.72s-.5,5.08-.65,7.67l-.5,8.87-.21,4.33-.44,7.19-.66,6.48-.34,4.88-.15,2.79-.23,4.33c-.08,1.49-1.02,2.52-2.64,2.5-1.11-.02-2.13.26-3.32.6Z"/></svg>