<?xml version="1.0" encoding="UTF-8"?><svg id="Calque_1" xmlns="http://www.w3.org/2000/svg" width="119.87mm" height="98.98mm" viewBox="0 0 339.79 280.56"><path d="M165.31,279.85c-2.41.41-3.54-.24-5.27-1.31-2.09-1.3-4.55-2.18-6.59-3.7-2.33-1.74-4.47.63-6.17-4.82-.6-1.94-3.34-4.46-4.99-5.37-1.93.21-2.97,1.77-4.25,2.98-2.16,2.05-4.57,3.9-6.38,6.27-.94,1.23-1.67,1.71-3.12,2.28-1.66.66-3.29,1.56-5.06,2.1-2.29.7-4.48,1.83-6.86,2.1-2.91.33-5.76.08-8.64-.41-2.7-.45-5.43-.34-8.03-.92-4.38-.97-7.94-4.05-11.04-7.02l-2.13-2.04c-1.75-.33-3.57-1.33-3.83-3.23-.23-1.67-.66-3.2-1.26-4.8-.67-1.78-2.33-7.31-5-6.32-6.18,2.29-7.8,6.31-17.62,8.05-2.29.41-4.72.28-7.05.04-2.93-.3-5.54-1.08-8.19-2.4-2.97-1.47-5.88-3.25-8.27-5.58-1.91-1.85-4.54-5.05-5.86-7.38-1.07-1.88-1.69-3.91-2.54-5.9-.91-2.13-1.86-4.22-2.25-6.53-.23-1.37-.72-2.83-.8-4.21-.21-3.45-.13-6.82-.06-10.23l1.86-3.46c.88-1.64,1.61-3.2,2.3-4.93.5-1.25,1.22-2.73.73-4.11-.65-1.81-5.68-1.94-7.6-2.71-3.83-1.53-5.33-2.12-8.74-4.64-2.96-2.18-7.88-7.94-9.06-11.61l-.88-2.71c-.99-3.06-.56.81-1.98-6.91C.21,177.86,0,175.39,0,172.74c-.01-6.58,2.67-10.64,4.89-15.36l.92-1.95c.71-1.51,4.79-4.12,5.87-5.85s2.01-3.17,3.4-4.58c.82-.83.74-2.4-.38-3.03-2.24-1.27-3.55-3.73-5.62-5.1-1.29-.85-3.21-.59-3.44-2.91-.43-4.36-1.63-5.11-1.87-8.85-.97-1.1-1.71-4.73-1.93-6.23-.44-3.04.13-6.01.51-9.04l.47-3.8c.22-1.75.33-3.11,1.36-4.57,1.28-1.81,2.33-3.84,3.76-5.55,1.18-1.41,2.49-2.65,3.78-3.96.35-2.27,2.25-3.18,4.42-3.34,1.36-.1,2.63-1.17,3.88-1.69,2.55-1.06,5.07-2.02,7.41-3.46.93-.57.73-1.91.27-2.7l-4.08-6.93c-.49-.83-.59-1.86-1.49-2.43-1.01-.64-1.16-1.68-1.31-2.83-.13-1.04.13-1.73.43-2.76.34-1.2-.34-2.84-.21-4.12l.43-4.41c.29-2.95.66-4.29.24-7.15l1.49-2.34c1.44-2.26,2.23-4.83,3.86-6.95l1.78-2.3c.84-1.09,1.52-2.17,2.12-3.4.57-1.15,1.92-1.67,2.88-2.42,2.19-1.73,4.39-3.14,7.02-4.26.99-.42,2.49-.71,3.21-1.43,1.12-1.11,2.01-1.94,3.78-1.64,4.78.81,3.74-.92,12.37,1.16,1.54.37,2.82.76,4.22,1.51l3.42,1.84c5,2.69,4.79,5.21,7.52,5.94,1.99.53,1.86-3.62,2.06-4.32l1.92-6.99c.21-.78-.05-1.66-.2-2.42s.53-2.33,1.16-2.77c.77-.53,1.53-.9,2-1.64,3.2-5.06,5.14-5.6,7.04-8.58.8-1.25,1.9-1.75,3.16-2.41,3.05-1.61,6.04-3.06,9.42-3.93,1.35-.35,2.81-1.07,4.18-1.23,3.36-.39,6.78-.07,10.06.5,3.06.54,5.65,1.94,8.44,3.02,1.59.62,1.98-.66,4.59,2.96.83,1.15,1.89,2.24,2.86,3.33l2.92,3.3c.78.88,1.58,1.19,2.77,1.19s2.95.48,4-.41c1.27-1.08,1.93-2.76,2.98-4.02s2.1-2.54,3.04-3.86c1.01-1.41,2.21-2,3.67-2.68,2.02-.93,3.85-2.3,6.03-3.02,1.7-.56,3.52-1.26,5.31-1.55,4.53-.74,9.05-.14,13.57.25,1.79.16,3.16.59,4.74,1.27,3.48,1.5,6.72,3.23,9.5,5.92.42.25,1.49.51,1.83.83.64.59,1.5,1.43,1.89,2.07l1.09,1.83,2,3.15c.39.62,1.47.85,2.21.84l7.59-.04c5.69-5.87,1.38-4.32,7.41-7.44l5.58-2.89c1.71-.89,3.63-1.5,5.51-1.91,4.05-.89,8.15-.44,12.19.1,11.07,1.49,14.56,7.08,17.52,8.67l2.8,1.51c.9.48,1.8,1.58,1.97,2.53.33,1.83,1.01,3.14,1.76,4.75,1.01,2.19,1.75,4.5,2.61,6.79.53,1.43.77,3.08,1.74,4.29.85,1.07,2.72.8,3.8.05,2.45-1.71,4.82-3.17,7.76-3.95,1.3-.35,2.77-1.21,4.11-1.31,2.78-.2,5.59-.35,8.34.03,2.33.33,4.75.66,7,1.35,4.19,1.27,11.09,5.74,14.24,8.7,2.23,2.1,3.93,4.7,5.18,7.48l2.62,5.81c.56,1.24.47,3.16.71,4.6.53,3.22.83,6.37.17,9.55.97,2.14-.13,3.81-1.02,5.58l-5.78,11.55c-.54,1.07,1.1,2.19,1.87,2.51l5.47,2.29c2.46-.27,4.66,1.23,5.21,3.61,2.45,1.94,4.15,4.56,6.36,6.58,1.54,1.41,2.27,2.4,2.89,4.52l1.9,6.51,1.1,5.5c.31,1.55.5,2.92.1,4.45-.52,2-.77,4.02-1.15,6.1-.27,1.46-.98,2.78-1.42,4.25-.25.85.59,3.72-1.67,5.48-.56.43-1.28.73-1.68,1.26-1.8,2.4-3.73,4.55-5.92,6.55-2.36,2.16.74,5.33,2.46,6.82l3.46,2.99c1.28,1.11,2.19,2.06,2.96,3.59,1.17,2.34,2.29,4.57,2.89,7.16.25,1.06.77,2.09,1.23,3.07.74,1.57.06,3.22-.14,4.78l-.59,4.83c-.16,1.29-.52,3.22-.02,4.39.94,2.2.96,4.05-.68,5.97-1.02,1.2-1.01,3.85-4.42,7.97-1.01,1.21-1.82,2.45-2.77,3.77-.66.92-2.07,1.22-3.06,1.7l-3.02,1.48c-1.65.81-3.41,1.5-5.17,2.06-1.37.44-4.74,1.47-5.42,2.77-.29.56-.29,2.01.03,2.6l2,3.7c.82,1.52,1.6,3,2.74,4.24,1.21,1.32,1.07,2.85,1.19,4.46l.49,6.45.18,4.33c.08,1.93-.27,3.37-.96,5.09-1.31,3.26-3.08,6.3-4.61,9.45-1.02,2.1-1.39,3.74-3.75,4.88-.04.02-5.75,4.45-7.9,5.59-1.14.61-2.02,1.14-2.66,2.2-.88,1.46-2.7,1.18-4.16,1.36l-6.23.76c-2.34.29-4.61.25-6.95-.06-2.09,1.06-4.24.5-5.86-1.1-.59-.58-1.49-1.03-2.22-1.41l-2.34-1.21c-1.8-.93-3.36-1.96-5.01-3.23-1.08-.83-3.03-.72-4.13.16-.63.5-.9,1.64-1.14,2.42-.57,1.87-1.24,3.64-2.02,5.41-.34.77.48,4.19-1.77,5.41-3.29,1.79-3.18,3.04-7.01,5.99s-2.11,4.38-7.32,4.8c-1.02.08-2.17.79-3.2.98l-4.83.89c-1.23.23-2.52.29-3.67.7-1.55.55-2.82.17-4.32-.2-3.25-.79-5.62-.82-8.26-2.29s-2.79.01-4.72-1.33c-5.49-3.81-1.67-1.66-4.44-4.67-1.7-1.85-3.19-3.58-4.78-5.54-.96-1.18-2.42-2.66-4.01-2.69-1.31-.03-2.31,1.51-2.91,2.46-1.2,1.9-2.79,3.24-4.21,4.91-3.91,4.57-7.26,5.82-12.72,7.88l-3.62,1.37c-3.4,1.29-13.87-.16-13.77-.17ZM145.04,63.09h8.27c1.32-.02,2.15-1.39,1.81-2.61s-1.27-2.12-2.3-3c-.85-.73-5.6-1.02-6.84-3.4l-1.39-2.66-4.89-5.19c-.81.15-2.06.19-2.44.7l-2.47,3.32c-1.27,1.71-3.03,2.86-4.4,4.53-1.62,1.97-3.71,3.36-6.06,4.44-.98.45-2.34.36-3.38.71-2.08.7-3.89,1.89-5.58,3.51h26.86s2.8-.35,2.8-.35ZM199.67,62.46l2.59.28,12.72.03c.69,0,1.34.51,2.21.15l-5.77-3.29c-1.13-.64-5.2-3.31-5.78-4.2l-3.23-4.98-2.45-3.8c-1.13,1.9-2.23,3.11-3.98,4.17-1.53.92-1.5,2.9-3.06,3.54-2.15.87-3.97,1.99-5.88,3.26-.88.58-1.63,1.04-2.23,1.94-.36.54-1.01,1.23-1.13,1.84-.09.45.92,1.14,1.36,1.22,2.04.36,10.05-.63,14.64-.14ZM88.86,65.39c.44-.28.96-.63,1.33-.61,2.28.12,4.17-.27,6.32-.65l1.91-.33c-1.11-1.8-2.67-2.43-4.41-3.29-2.31-1.15-4.54-2.63-6.53-4.25-1.01-.82-1.76-1.38-3.15-1.51-.64-.06-1.69-.15-2.17.27-.36.32-.73,1.19-.81,1.76l-.75,5.06c-.33,2.2-1.09,5.11-1.8,7.13-.05.13.19.61.29.56l.55-.25c1.42-.65,2.72-1.76,4.22-2.18,1.68-.47,3.46-.72,4.99-1.69ZM260.11,69.63c.16,0,.56-.14.57-.29,0-.11-.03-.44-.09-.58l-1.53-3.76c-.45-1.1-.67-2.16-1.04-3.32l-1.16-3.6c-.26-.8-1.2-1.45-2.04-.94l-5.44,3.31-8.09,3.24c-.15.06-.37.34-.45.46s.39.4.63.4c6.9-.18,12.62,1.93,18.65,5.09ZM278.18,101.69l5.38-7.91c.38-.55,2.22-4.24.96-4.99l-2.4-1.42c-2.94-1.74-4.13-1.74-7.33-3.72-2.22-1.37-1.62-.28-4.33-2.19-.23.69.19,1.25.41,1.95.97,3.11,1.82,6.19,2.41,9.41l.96,5.32c.24,1.31.41,2.41.51,3.81l.53,7.31c.01.19.32.71.46.61.1-.07.5-.37.54-.5.43-1.37,1.12-3.56,1.4-5.09.16-.86-.04-1.79.5-2.59ZM63.27,106.95c1.31-.61,1.03-1.48,1.06-2.38.1-2.77.55-3.52.82-6.34.25-2.58.59-5.02,1.1-7.57.85-4.21,2.14-3.26-.18-6.05l-4.09,2.06c-1.84.93-5.18,1.49-7.43,2.89-.76.49-.28,2.2.18,2.76l2.47,3.03c1.04,1.28,1.63,2.83,2.6,4.18,1.65,2.27,2.72,4.6,3.46,7.42ZM57.27,139.4c1.8-.05,3.42-.05,5.04-.28.21-.63.49-1.38.5-1.89l.1-9.88c0-.57-.24-1.18-.7-1.45-2.58,5.4-2.29,5.44-6.01,9.9-1,1.2-2.08,2.27-2.85,3.7l3.92-.11ZM283.3,199.06c1.89-1.24,2.78-3.68,2.89-5.79-.77-1.18-1.03-2.25-1.49-3.46-1-2.56-2.6-4.87-3.39-7.52-1.42-4.79-1.41-11.31-.64-16.13.27-1.67,1.48-3.1,1.94-4.75-.77-3.77-.58-7.48.55-11.16.5-1.64.42-3.21.27-4.87l-.26-2.92c-.39-4.32.67-4.93-.04-8.58-1.21-1.4-2.06-2.78-2.97-4.36-.35-.61-1.05-.69-1.68-.62l-2.51.28c0,.88.02,1.67.09,2.57.1,1.4-.01,2.81-.04,4.24l-.06,2.67-.38,26.74-.28,5.05-.51,8.5-.39,5.82c-.05.8-.25,1.54-.42,2.36l-1.01,4.95c-.74,3.62-1.4,7.41-2.88,10.85-.29.67-.53,1.48-.38,2.18.77.09,1.73-.06,2.34-.46,4.32-2.76,9.86-4.69,11.24-5.59ZM62.69,168.05c.45-4.39.13-8.13.16-12.12l-.13-2.82c-.04-.93-.31-4.19-.89-4.64-.19-.14-.76-.22-1.09-.21l-11.55.29c-.24.12-.13.86.09,1.11l6.42,6.79c1.04.74,1.68,1.64,2.24,2.76,1.49,2.96,2.86,5.8,4.75,8.86ZM70.18,202.62l-1.84-4.06c-.41-.9-.24-2.08-.65-2.96l-.97-2.1-1.79-7.64-.6-4.66c-.02-.16-.28-.46-.37-.56s-.52.24-.58.4l-2.96,8.41-2.55,6.4c-.25.62-.35,1.59-.03,2.15.25.45,1.01.96,1.61,1.23l3.43,1.51,4.12,1.69,2.2.89c.16.07.54.13.7.15s.35-.68.27-.85ZM98.85,220.63c.65-.28,1.47-.56,2.01-.69l3.19-.79c-.5-.56-.98-.81-1.54-.87l-5.1-.55c-5.67-.61-11.09-1.42-16.49-3.66-.15,1.43.64,2.08,1.25,2.99.91,1.35,1.69,2.65,2.4,4.11l1.66,3.43c.66.86,2.71.51,3.56.11l4.62-2.18,4.45-1.9ZM250.1,222.49l2.99.99c1.02,1.07,3.2,2.28,4.72,1.11,1.24-.95,1.26-3.15,1.82-4.54l1.27-3.13c.21-.52.38-1.27.26-1.84-1.27-.24-2.61.03-3.82.55-2.45,1.05-4.88,1.77-7.5,2.31-1.21,1.57-3.43.29-3.26,1.48.15.98,1.62.23,1.76,1.48.12,1.09.8,1.27,1.76,1.59ZM147.41,231.05c.71-.77,1.3-1.35,1.9-2.09,4.31-5.33,2.25-1.64,6.59-5.67,0-.86-.71-2.18-1.41-2.7l-7.41-.2-6.69-.29-12.97-.41-4.1.05c-.25,0-.73.3-.85.48s.32.52.54.6c4.81,1.58,12.32,7.69,15.8,11.53.65.72,1.4,1.35,1.89,2.23.65,1.18,2.16,1.88,3.33.85,1.33-1.16,2.11-2.99,3.37-4.36ZM205.6,232.03c.84-1.19,5.14-4.77,6.46-5.8,1.91-1.83,4.02-3.15,6.31-4.54.21-.12.5-.58.47-.81-.02-.18-.53-.37-.76-.37l-25.15.06c-.64,0-1.54.39-2.1.31-.9-.12-5.27-.96-4.26.95l1.01,1.92c.28.54,1.51.87,2.06,1.24,2.99,2.04,5.55,4.41,8.3,6.75.7.6,1.52,1.14,1.99,1.84.7,1.03,1.53.81,2.49.57,1.41-.35,2.27-.83,3.17-2.11Z"/></svg>