<?xml version="1.0" encoding="UTF-8"?><svg id="Calque_1" xmlns="http://www.w3.org/2000/svg" width="78.47mm" height="132.23mm" viewBox="0 0 222.43 374.84"><path d="M132.61,361.94l-2.79.4-6.07,1.15-4.24.61c-3.53.51-3.97.34-7.41,1.07-2.34.5-4.67.83-7.09,1.12-3.57.43-18.27,2.73-20.64,4.04-1.05.58-1.97,1.02-3.12,1.47-2.11.84-4.1,2.03-6.37,2.42-4.23.73-8.44,1.07-12.48-.64-3.76-1.6-1.61-8.07-2.78-13.04-.3-1.29-2.23-1.4-3.01-2.02-1.3-1.04-2.06-2.62-3.5-3.46l-8.63-5.05c-.88-.51-1.59-1.07-2.49-1.57l-4.46-2.47c-2.69-1.49-5.63-2.37-8.28-3.92-1.84-1.08-3.49-1.25-5.55-1.25-2.2,0-4.58-.32-6.67-.67s-2.92-2.02-3.02-3.81l-.49-9.15c-.09-1.66-1.56-3.3-1.4-5.04s-.79-3.12-.88-4.65c-.17-2.69-.08-5.27-.53-7.94-.29-1.72-.59-3.5-.74-5.22-.23-2.6-.61-4.86-1.35-7.38-1.05-3.55-1.86-7.28-1.92-10.97-.04-2.29-.02-4.35-.33-6.62l-.82-6.19c-.18-1.37-.14-2.85-.5-4.15-.39-1.4-.74-2.73-.52-4.26.44-3,.74-5.88.91-8.89.13-2.3,1.01-4.45,2.92-5.75.43-.29,1.1-1.23.51-1.57-4.68-2.68-7.75-6.43-8.35-11.94C.32,235.01,0,233.37,0,231.7l.02-12c.4-1.25,1.52-2.77,2.36-3.74s.34-1.91.69-2.84c.84-2.24,2.68-3.98,4.06-5.89,2.21-3.07,4.56-5.74,7.36-8.27.33-.3.68-1.08.97-1.45,1.91-2.41,3.64-4.77,5.36-7.33,1.37-2.03,1.87-5.68,5.27-9.55,1.13-1.28,1.59-2.31,1.96-3.97l.6-2.72c.54-2.44,1.34-4.81,2.03-7.18l1.21-4.19,1.14-8.12.61-3.16c.18-.92.4-1.8.71-2.66l.9-2.53c.28-.78.48-1.86.59-2.7l.54-3.87c1.47-10.47-1.12-7.36-.06-15.31.05-.56-.42-1.77-.4-2.36l.37-11.62.59-7.1.02-6.74c0-.82.72-2.04.46-2.77-.52-1.42-.38-2.39-.09-3.83l.57-2.81,1.3-4.24c.41-1.35,1.06-2.68,1.35-4.1,1.15-5.61,4.1-11.49,7.35-16.15,1.46-2.09,2.75-4.42,4.95-5.86.98-.64,1.99-1.13,2.91-1.9,5.32-4.42,4.25-1.66,7.78-4.19.43-.31,1.57-.2,2.23-.24,3.42-.2,3.96,1.56,4.86.66.14-4.3-.77-8.98-.5-13.57.29-5.04.5-5.31,2.25-9.5.84-2.01,1.88-3.79,3.02-5.6.62-.99.91-2.15,1.3-3.21.85-2.32,3.14-3.44,4.77-5.08,3.52-3.55,7-6.84,10.92-9.93,2.6-2.05,4.28-5.11,9.21-3.71,1.03.29,1.87.51,2.97.22,8.01-2.13,5.67,2.18,12.95,2.7,1.23.09,2.62,1.45,3.58,2.2,2.3,1.79,4.08,3.69,6.01,5.84.67.75,1.9,1.52,2.85,1.89,5.5,2.17,4.12,3.28,5.72,5.06l1.84,2.04c1.02,1.13,1.88,2.33,2.46,3.76l1.72,4.25,2.25,5.95c.88,2.34,1.33,4.69,1.91,7.08.35,1.44.41,2.67.35,4.15-.07,1.77-.28,2.64-1.68,3.89-1.16,1.03-1.89,3.06-2.99,4.32-.8.91-3.46,3.59-3.56,3.99-.06.25.41.64.65.84.84.7,1.54.83,2.63,1s2.03,1.19,2.9,1.84c2.57,1.89,4.58,4.14,6.7,6.51,3.16,3.54,6.32,6.88,9.22,10.64.97,1.26,1.99,2.31,3.02,3.5,1.58,1.82,2.9,3.76,4.32,5.74.62.87.79,2.31,1.46,3.11l2.19,2.59c2.82,3.33,5.56,5.22,9.22,7.64,3.14,2.07,5.56,5.34,6.87,8.84.62,1.66,2.78,9.54,3.18,11.45l.59,2.79c.35,1.65.62,3.28,1.2,4.85l1.81,4.89c.93,2.52,1.64,5.12,2.29,7.76l.71,2.89.74,3.08c1.27,5.29,1.03,9.03,2.84,13.78,1.28,3.36-.32,2.75,1.51,7.84,2.08,5.76,2.79,10.26,4.61,15.77.85,2.56,1.69,4.86,1.72,7.62.01,1.19.46,2.43.67,3.59.26,1.44.15,2.93.57,4.36l2.34,7.93c.12.42.61,1.23.82,1.6,1.71,2.99.94,3.98,2.2,8.08.71,2.31.74,4.38.67,6.77-.16,5.44,3.08,11.76,1.54,21.9-.26,1.74-1.33,3.05-2.43,4.5.83,1.61,3.36,3.3,3.36,4.97,0,2.38,2.18,6.43,2.66,8.72.63,2.98.75,5.93,1.55,8.86.42,1.54-.1,3.06-.13,4.57l-.17,9.18c-.14,7.36-1.24,10.27-.76,18.28.08,1.36.43,2.91-.09,4.15-.45,1.07-.76,1.97-.72,3.15.05,1.67-.21,3.2-.4,4.83-.2,1.73-.27,3.48-.27,5.24,0,1.19-.39,2.05-.69,3.14l-1.51,5.45c-.38,1.39-.64,2.73-1.28,4.03-.68,1.39-.63,6.69-.52,8.56.08,1.24.03,2.84-.85,3.78-1.08,1.15-2.75,1.42-4.25,1.72-.4.08-1.14.38-1.48.38-2.12.03-4.15.06-6.24-.07-1.96-.12-4-1.02-5.95-.75l-6.55.88c-3.89.52-11.66,2.45-15.66,3.51-1.93.51-3.85.91-5.84,1.31l-4.96,1.01-3.63.74-3.82.73-3.68.69-3.08.57-3.15.47-10.2,1.76-3.75.7Z"/></svg>