<?xml version="1.0" encoding="UTF-8"?><svg id="Calque_1" xmlns="http://www.w3.org/2000/svg" width="154.73mm" height="109.21mm" viewBox="0 0 438.62 309.59"><path d="M415.23,286.65c-.69.61-1.46,1.05-2.12,1.58l-3.04,2.44-2.79,2.03-1.73,1.38c-.88.7-1.71,1.3-2.68,1.87-2.53,1.5-4.72,3.55-7.93,5.21l-1.89.98c-3.93,2.03-11.04,2.7-15.59,2.94-2.65.14-.84,2.95-4.8,3.44-3.67.45-7.29,1.06-11.01.77-1.51-.12-2.85.19-4.36.22l-4.1.07c-.51,0-1.31-.09-1.88-.14l-4.1-.4-5.29-.5-3.08-.29-3.63-.36-4.57-.51c-1.33-.15-2.71-.19-4.06-.25s-2.54-.28-3.82-.42l-4.39-.5-4.02-.33c-2.65-.22-4.35-.66-7.47-.83-3.29-.19-4.47-.5-7.72-.79l-2.75-.25c-.86-.08-1.57-.39-2.46-.34-.99.05-1.96-.3-2.87-.39l-4.59-.46-3.17-.46-3.4-.46-4.97-.57-3.15-.39-4.79-.48-2.93-.48c-1.31-.22-2.64-.44-3.98-.58l-2.65-.27c-1.15-.12-2.23-.25-3.36-.45l-3.3-.58c-4.35-.76-8.64-.38-13.03-.76l-6.29-.54-8.85-.64-10.48-1.08c.77.08-8.53-1.86-7.56-1.47l-4.15-1.66c-2.12-.85-2.48-1.48-4.46-1.7-.9-.1-1.62-.38-2.48-.62-2.29-.64-4.7-1.06-7.09-1.25l-6.69-.53-5.04-.16c-2.86-.09-5.68.03-8.45-.6-1.79-.41-3.48-.85-5.29-.26-2.23.71-4.51,1.56-6.89,1.68l-4.82.25c-3.46.18-6.84.1-10.25-.06l-6.58-.31-13.4-.77-3.38-.22-5.04-.29-8.92-1.05c-4.39-.51-8.68-.46-13.13-.82l-8.25-.66-10.48-.56-7.21-.47-6.96-.44-8.4-.3-4.33-.21c-2.33-.11-4.43-.35-6.73-.67-1.58-.22-3.3-.11-4.9-.22-3.64-.25-7.17-.47-10.75-1.26-1.56-.34-2.85-1.06-4.22-1.79-.84-.45-1.71-.74-2.27-1.6-2.62-4.05-1.51-3.96-3.02-5.86-.57-.72-.8-1.81-1.21-2.65-.5-1.02-.89-1.84-.75-3.06.22-1.82-.49-3.37-.58-5.1l-.26-5.34c-.07-1.53-.85-2.88-.92-4.43l-.15-3.78-.29-3.45-.17-3.33-.17-3.61c-.09-1.8-.2-3.51-.48-5.29l-.42-2.68c-.15-.94-.42-2.15-.44-3l-.07-2.97.04-1.57c-.38-1.42-.63-2.68-.77-4.09l-.48-4.82.02-3.38-.46-6.72c-.23-3.34.74-1.07-.33-7.81l-.39-2.49c-.78-4.92.91-3.31.05-6.67-.4-1.55-.33-3.26-.37-4.89l-.16-7.17c-.01-.57-.41-1.48-.4-2.15l.11-8.38c.02-1.33.19-2.22-.4-3.55-.37-.83,0-2.21-.01-3.18l-.05-3.11c-.02-1.28.08-2.36.23-3.65.13-1.07-.82-2.34-.56-3.52.22-.98.27-5.64-.53-6.8l.21-1.74c-.94-.69-.88-1.4-.8-2.34.15-1.72.75-2.95,1.91-4.24.61-.68-.21-2.1-.06-2.91.73-3.95,3.64-9.46.68-12.73.13-.73.45-1.67.41-2.32-.23-3.55.87-3.93.86-6.97,1.23-1.89,1.29-4.08,1.86-6.15.65-2.36,1.68-4.61,2.66-6.84.55-1.26,1.71-2.4,1.66-3.84-.05-1.24.19-1.81,1.17-2.55.65-.5.82-1.83,1.19-2.62.44-.97,1.37-1.98,1.4-3.03.02-.81-.08-1.51.29-2.21,1.28-2.45-.31-2.6,1.98-3.54l1.05-2.33c1.6-3.55,1.68-3.6,3.02-7.35l.94-2.62.96-2.92,1.2-2.79c2.75-6.36.41-1.28,1.93-6.13l1.11-3.54c.56-1.78-1.51-3,.56-5.92.49-.7,1.01-1.81,1.12-2.63.54-3.9.54-.85,1.39-5.74.55-3.16,1.69-6.24.88-9.11-.64-2.28-1.26-10.11.47-12.02l.09-2.25c.27-.8,2.85-4.76,3-4.86l3.06-1.97,1.66-1.4c2.43-.97,5.66-.21,7.54-.72,2.57-.7,4.93.06,7.41.05,1.52-.01,3.03-.31,4.6-.2,4.84.34.43.61,6.46-.13,1.38-.17,2.17.52,3.19,1.05,1.62.83,3.61-.36,5.25-.15,1.02.13,2.01.91,3.2.39.45-.2,1.58.24,2.08.16,2.67-.44,5.27-.31,7.7,1.06l1.62-.6,3.37.41c1.54.19,3.09.08,4.65-.21,2.87-.53,2.29.67,6.74.23,3.54-.35,3.99,1.23,6.42.8,6.69-1.18,5.01,1.21,8.48.65.86-.14,1.99-.26,2.81-.33,1.66,1.98,5.94.18,9.74.56.78.08,1.42.91,2.48.6,5.72-1.65,5.82.86,8.24.1,1.13-.36,2.3-.29,3.49-.22,1.05.07,1.56.26,2.22,1.01s1.87.06,2.68-.06c1.21-.17,2.73-.32,3.85-.39,1.19.99,2.07.87,3.41.38,1.24-.45,3.21-.57,4.48-.19.88.26,1.61.63,2.57.57,1.16-.07,2.66-.59,3.67-.34,1.42.35,2.42.54,3.8.48l3.07-.13c3.46-.15,3.27.73,6.26.56,5-.29,5.11.23,9.36.26,1.42.01,2.62-.15,4,.17,2.99.7,3.76-.58,7.42.31,4.01.98,3.57-.43,8.74.34,1.18.17,2.23.14,3.41.11,1.63-.05,3.33.39,4.96.45,3.14.13.16.91,5.07.11,1.79-.29,1.7,1.54,5.62.63,4.23-.98,3.98.46,6.64-.04,1.77-.33,3.57.82,5.14.69,1.41-.12,2.61-.25,4.04-.16l4.98.31c1.21.07,2.44-.34,3.56-.28l8.87.45,3.57.15,2,.09c.91.04,1.72.06,2.65-.05,1.35-.17,2.72.48,4.02.51,5.1.15,5.24-1.64,7.7-.26.62.35,2.02.53,2.66.24,1.13-.52,1.97-.61,3.15-.38,7.64,1.49,7.26-.75,12.06,1.18.75.3,2.03-.38,2.87-.54,3.89-.74,3.27,1.83,6.07.44,1.43-.71,4.1-1.01,5.55-.02,1.18.81,2.31,1.12,3.37.51.72-.42,2.28-.6,2.97-.37.96.32,1.82.76,2.84.55,7.46-1.54,7.09.52,8.32.28l3.71-.7c1.44-.27,2.55.26,3.89.81.82.34,2.11-.34,2.99-.46,1.65-.24,3.22.29,4.84.45,2.04.21,4.08.03,6.14,0s5.34.47,6.59.11c4.22-1.22,3.38,1.56,5.96.64,2.05-.73,4.36-1.06,6.31,0,1.61.87,3.35.12,5.07-.35,1.15-.1,2.66.15,3.82.39.7.15,1.42.09,2.1.17l3.39.39c4.35.5,2.22-.66,5.95,1.39.49.27,1.05.76,1.49.9,2,.63.54,1.2,1.82,1.97,2.38,1.43,1.38,2.43,3.31,5.9,1.04,1.86,1.48,4.17,1.42,6.37-.03,1.36.2,2.47.27,3.86l.21,4.41c.1,2.03-.74,2.34-1.2,3.74-.65,2-.46,4.69.41,6.58.64,1.4,1.26,2.45,1.34,4.01.1,2.15.65,4.21,2.14,5.78l-.02,1.19c.47,1.19.46,2.31.94,3.47l1.44,3.44c.72,1.71.43,3.08,3.01,7.1.9,1.4,1.49,2.97,2.26,4.44s1.65,3.03,2.33,4.62c.41.97.44,2.06,1.28,2.82.74.67.86,1.52,1.18,2.48s1.03,1.95,1.53,2.97l.03,1.61c1.79.78,1.91,2.61,2.43,4.12.7.58,1.13,1.42,1.59,2.3l1.95,3.72c.23.44.55,1.14.58,1.58l.24,3.19c.3,4.04-2.09,7.82,3.81,10.94,3.16,0,3.4,2.24,3.98,4.55.31,1.24.58,2.38.63,3.68l.1,2.38.25,3.37.42,3.37.29,4.05.24,2.95c.48,5.89,1.52,3.57,3.55,6.74,1.2,1.88,1.16,3.44.78,5.5-.35,1.91-.92,3.49-2.82,4.6-.8.47-1.88,1.24-2.78,1.6-1.24.51-2.1.97-2.7,1.85-.89,1.31-.37,2.34-.19,3.74.3,2.36.07,4.85.24,7.29.07,1.02.35,2.11.33,3.1-.03,1.54.12,2.87.19,4.39l.24,5.3c.11,2.37-.08,4.76.22,7.11.14,1.12.29,2.07.26,3.22-.07,3.1.37,6.3-.33,9.31-1,4.3.55,5.68.84,9.33.2,2.57-.18,5.1.2,7.63.24,1.64.94,5.3.73,6.96-.24,1.92.15,3.46.23,5.3l.45,9.98c.05,1.07.28,2.17.3,3.25.1,5.74.09,10.83-.22,16.42l-2.03,4.24-.74,1.37c-1.25,2.34-2.62,3.76-4.99,5.25-.4.34-.88,1.31-1.3,1.72-1.17,1.14-2.24,2.19-3.34,3.39-1.02,1.11-2.21,1.95-3.31,2.93l-2.63,2.33Z"/></svg>